<svg xmlns="http://www.w3.org/2000/svg" xmlns:xlink="http://www.w3.org/1999/xlink" width="728" height="692" viewBox="0 0 728 692">
  <defs>
    <linearGradient id="linear-gradient" x1="0.246" y1="-5.765" x2="0.754" y2="6.179" gradientUnits="objectBoundingBox">
      <stop offset="0" stop-color="#d8e7fd"/>
      <stop offset="1" stop-color="#539dff"/>
    </linearGradient>
    <linearGradient id="linear-gradient-2" x1="0.103" y1="-0.157" x2="0.897" y2="1.157" xlink:href="#linear-gradient"/>
    <linearGradient id="linear-gradient-3" x1="0.113" y1="-0.205" x2="0.887" y2="1.205" gradientUnits="objectBoundingBox">
      <stop offset="0.226" stop-color="#e5f2ff"/>
      <stop offset="1" stop-color="#b5d7fd"/>
    </linearGradient>
  </defs>
  <g id="Group_35" data-name="Group 35" transform="translate(-164 -1852)">
    <rect id="Rectangle_7" data-name="Rectangle 7" width="728" height="692" transform="translate(164 1852)" fill="#2e82ff" opacity="0.068"/>
    <g id="_2292510" data-name="2292510" transform="translate(197.577 2099.245)" style="isolation: isolate">
      <g id="OBJECTS" transform="translate(0.027)">
        <rect id="Rectangle_14" data-name="Rectangle 14" width="541.141" height="9.002" transform="translate(58.039 330.782)" fill="#5c9bff"/>
        <path id="Path_312" data-name="Path 312" d="M67.419,331.725a27.989,27.989,0,0,0,27.989,27.989H696.442a27.989,27.989,0,0,0,27.989-27.989Z" transform="translate(-67.316 8.058)" fill="url(#linear-gradient)"/>
        <path id="Path_313" data-name="Path 313" d="M337.571,340.539H228.307a26.026,26.026,0,0,1-19.52-8.814l148.305,0a26.027,26.027,0,0,1-19.522,8.816Z" transform="translate(45.67 8.057)" fill="#5c9bff" opacity="0.8" style="mix-blend-mode: multiply;isolation: isolate"/>
        <rect id="Rectangle_15" data-name="Rectangle 15" width="551.216" height="332.863" rx="4.594" transform="translate(53.001)" fill="url(#linear-gradient-2)"/>
        <rect id="Rectangle_16" data-name="Rectangle 16" width="520.932" height="285.932" transform="translate(68.143 30.247)" fill="url(#linear-gradient-3)"/>
        <rect id="Rectangle_17" data-name="Rectangle 17" width="2.879" height="285.86" transform="translate(68.143 30.247)" fill="#5c9bff" opacity="0.5"/>
        <path id="Path_314" data-name="Path 314" d="M249.725,153.74a5.175,5.175,0,1,1-5.174-5.175,5.175,5.175,0,0,1,5.174,5.175Z" transform="translate(70.118 -138.329)" fill="#fff" opacity="0.4"/>
        <path id="Path_315" data-name="Path 315" d="M162.108,306.315c-5.131-5.853,1.421-11.359,2.159-12.476.031-.041.067-.086.1-.128,3.735-5.131,5.551-13.145.757-18.286a19.443,19.443,0,0,0-20.563-4.995c-8.406,3.059-12.035,10.905-13.152,19.252a20.909,20.909,0,0,0,1.979,11.2Z" transform="translate(-16.261 -41.805)" fill="#0059f0"/>
        <path id="Path_316" data-name="Path 316" d="M155.48,276.309c.54,3.778,1.375,5.317.862,8.188l-.452,1.2c-.029.05-.056.1-.088.151l.041-.023-1.367,3.645a8.918,8.918,0,1,1-16.7-6.267l1.539-4.1C141.958,275.555,151.284,280.971,155.48,276.309Z" transform="translate(-11.54 -36.232)" fill="#e7afa7"/>
        <path id="Path_317" data-name="Path 317" d="M142.391,280.937a3.359,3.359,0,1,1-1.965-4.318,3.359,3.359,0,0,1,1.965,4.318Z" transform="translate(-12.597 -36.157)" fill="#e7afa7"/>
        <path id="Path_318" data-name="Path 318" d="M143.105,283.658c-.991.952-12.67,15.249-12.67,15.249l16.981,2.568.988-12.659Z" transform="translate(-16.951 -30.358)" fill="#e7afa7"/>
        <path id="Path_319" data-name="Path 319" d="M156.7,313.053a5.374,5.374,0,1,1-7.6-.011,5.374,5.374,0,0,1,7.6.011Z" transform="translate(-3.297 -8.127)" fill="#e7afa7"/>
        <path id="Path_320" data-name="Path 320" d="M165.94,331.011l-9.7,4.633-17.453-33.423a6.914,6.914,0,0,1,2.774-10.076h0c3.8-1.814,11.429,1.276,12.686,5.292Z" transform="translate(-11.203 -23.999)" fill="#e7afa7"/>
        <path id="Path_321" data-name="Path 321" d="M214.476,339.474H142.759l-3.194-18.548,63.043,4.318a14.468,14.468,0,0,1,11.868,14.23Z" transform="translate(-9.654 -0.573)" fill="#0051c7"/>
        <path id="Path_322" data-name="Path 322" d="M118.683,233.057h4.71l-3.4-15.821H113.1Z" transform="translate(90.345 173.622)" fill="#e7afa7"/>
        <path id="Path_323" data-name="Path 323" d="M96.342,231.689h4.71l3.6-14.453H97.758Z" transform="translate(76.95 173.622)" fill="#e7afa7"/>
        <path id="Path_324" data-name="Path 324" d="M171.565,367.287l-3.778,1.655-3.5-1.655-3.143,10.256h29.148c0-5.13-10.957-5.13-10.957-5.13Z" transform="translate(7.589 36.481)" fill="#1b3874"/>
        <path id="Path_325" data-name="Path 325" d="M191.191,367.287l-3.778,1.655-3.5-1.655-3.143,10.256h29.148c0-5.13-10.957-5.13-10.957-5.13Z" transform="translate(23.275 36.481)" fill="#1b3874"/>
        <path id="Path_326" data-name="Path 326" d="M130.756,245.3h-6.887l-22.561-56.937H123.9Z" transform="translate(80.919 150.543)" fill="#0051c7"/>
        <path id="Path_327" data-name="Path 327" d="M212.255,344.789l-22.05,4.584-63.376-31.667,73.56,12.852A14.466,14.466,0,0,1,212.255,344.789Z" transform="translate(-19.833 -3.145)" fill="#006cff"/>
        <path id="Path_328" data-name="Path 328" d="M129.794,316.287c-.509,3.719-5.543,8.512-5.371,19.631.1,6.672,4.5,10.808,9.487,13.052,4.174,1.875,9.854,1.538,13.377,1.538h44.844l-26.321-25.875Z" transform="translate(-21.76 -4.28)" fill="#006cff"/>
        <path id="Path_329" data-name="Path 329" d="M105.051,244.078H98.164l-3.446-49.61,22.051-4.584Z" transform="translate(75.652 151.761)" fill="#006cff"/>
        <path id="Path_330" data-name="Path 330" d="M117.325,183.733l-32.719-4.417-2.559-10.707,35.278,9.871Z" transform="translate(65.525 134.758)" fill="#e7afa7"/>
        <path id="Path_331" data-name="Path 331" d="M128.676,340.672l2.049-9.423-6.207-36.5a6.2,6.2,0,0,1,7.28-5.686l24.829,2.362a6.2,6.2,0,0,1,4.838,7.868l-6.357,44.421Z" transform="translate(-21.68 -26.112)" fill="#ffcb4c"/>
        <path id="Path_332" data-name="Path 332" d="M161.258,314.846,148.6,320.263l-10.117-16.575A8.886,8.886,0,0,1,143.3,290.8h0a8.886,8.886,0,0,1,11.18,5.268Z" transform="translate(-11.482 -25.029)" fill="#ffcb4c"/>
        <path id="Path_333" data-name="Path 333" d="M128.87,182.274,77.6,179.62v-1.571L128.87,180.7Z" transform="translate(61.974 142.303)" fill="#003aa7"/>
        <path id="Path_334" data-name="Path 334" d="M122.23,191.418l-34.205-1.441,9.289-24.829h34.247Z" transform="translate(70.303 131.991)" fill="#003aa7"/>
        <path id="Path_335" data-name="Path 335" d="M89.552,184.834,55.361,180.47l-1.087-10.759,35.278,9.869Z" transform="translate(43.328 135.639)" fill="#e7afa7"/>
        <path id="Path_336" data-name="Path 336" d="M130.325,317.221a5.374,5.374,0,1,1-6.069-4.576A5.374,5.374,0,0,1,130.325,317.221Z" transform="translate(-25.589 -7.233)" fill="#e7afa7"/>
        <path id="Path_337" data-name="Path 337" d="M141.215,318.735l4.43-1.13a11.716,11.716,0,0,1,10.3,2.269l5.786,4.71-20.511-.648Z" transform="translate(-8.335 -3.517)" fill="#e7afa7"/>
        <rect id="Rectangle_18" data-name="Rectangle 18" width="69.083" height="67.8" transform="translate(75.139 346.228)" fill="#0055d6"/>
        <rect id="Rectangle_19" data-name="Rectangle 19" width="26.963" height="67.8" transform="translate(48.175 346.228)" fill="#0070ff"/>
        <path id="Path_338" data-name="Path 338" d="M141.594,280.115l-9.14.808v11.335c7.792,5.439,14.174-2.8,14.174-2.8-6.312-4.554-5.518-8.048-5.054-9.3" transform="translate(-15.337 -33.19)" fill="#0059f0"/>
        <path id="Path_339" data-name="Path 339" d="M130.114,336.928l-10.454-2.5,7.629-38.05c.238-4.2,2.549-5.988,6.675-5.157h0c4.124.831,8.37,7.886,6.963,11.852Z" transform="translate(-25.563 -24.472)" fill="#e7afa7"/>
        <path id="Path_340" data-name="Path 340" d="M135.022,319.4l-13.106-4.217,3.239-19.146a8.886,8.886,0,0,1,12.085-6.565h0a8.886,8.886,0,0,1,4.978,11.314Z" transform="translate(-23.76 -26.235)" fill="#ffcb4c"/>
        <path id="Path_341" data-name="Path 341" d="M63.1,146.307,80.208,163.54l1.961-15.517Z" transform="translate(50.383 116.933)" fill="#e7afa7"/>
        <circle id="Ellipse_2" data-name="Ellipse 2" cx="16.767" cy="16.767" r="16.767" transform="translate(476.972 222.062) rotate(-45)" fill="#001868"/>
        <path id="Path_342" data-name="Path 342" d="M375.328,365.06H355.272a12.726,12.726,0,0,0-12.712,12.71,1.558,1.558,0,1,0,3.116,0,9.6,9.6,0,0,1,9.6-9.593h1.08a12.672,12.672,0,0,0-4.4,9.593,1.558,1.558,0,1,0,3.116,0,9.615,9.615,0,0,1,9.642-9.593h1.213a9.6,9.6,0,0,1,9.6,9.593,1.558,1.558,0,1,0,3.116,0,12.654,12.654,0,0,0-4.408-9.593h1.1a9.6,9.6,0,0,1,9.594,9.593,1.558,1.558,0,0,0,3.116,0,12.724,12.724,0,0,0-12.7-12.71Z" transform="translate(152.586 34.701)" fill="#006efd"/>
        <rect id="Rectangle_20" data-name="Rectangle 20" width="5.482" height="55.78" transform="translate(515.143 348.385)" fill="#006efd"/>
        <path id="Path_343" data-name="Path 343" d="M391.716,341h-48.34a3.627,3.627,0,0,1-3.627-3.625h0a3.627,3.627,0,0,1,3.627-3.625h48.34a3.626,3.626,0,0,1,3.625,3.626h0A3.626,3.626,0,0,1,391.716,341Z" transform="translate(150.34 9.676)" fill="#ffcb4c"/>
        <path id="Path_344" data-name="Path 344" d="M334.192,421.545h0a1.419,1.419,0,0,0,1.382-1.749L309.946,312.132h-5.632l28.507,108.355a1.42,1.42,0,0,0,1.371,1.058Z" transform="translate(122.019 -7.601)" fill="#1b3874"/>
        <path id="Path_345" data-name="Path 345" d="M279.679,148.608l16.047,1.29-7.775-18.924L276.1,133.6Z" transform="translate(220.615 104.679)" fill="#c8987e"/>
        <path id="Path_346" data-name="Path 346" d="M349.028,270.021a2.737,2.737,0,1,0,2.213-3.176A2.737,2.737,0,0,0,349.028,270.021Z" transform="translate(157.721 -43.83)" fill="#c8987e"/>
        <path id="Path_347" data-name="Path 347" d="M343.8,263.643a8.541,8.541,0,0,0-4.772,4.023,8.31,8.31,0,0,0-.854,5.362h0l.286,1.6c.025.07.047.14.076.211l-.045-.038.8,4.48c1.1,6.177,6.639,10.671,12.519,9.716a11.078,11.078,0,0,0,8.789-13.113l-.981-5.489v-.011S357.632,259.658,343.8,263.643Z" transform="translate(148.982 -47.064)" fill="#c8987e"/>
        <path id="Path_348" data-name="Path 348" d="M342.46,264.6a19.471,19.471,0,0,1,4.262-.34,9.245,9.245,0,0,1,3.116.56c3.239,1.27,2.7,6.672,2.71,9.383,0,.664.013,1.45.563,1.819a1.375,1.375,0,0,0,1.81-.633,6.48,6.48,0,0,0,.54-2.071,2.276,2.276,0,0,1,1.114-1.742l-4.309-10.8c-.032-.079-6.945,2.229-7.478,2.4a8.619,8.619,0,0,0-2.328,1.419Z" transform="translate(152.506 -48.647)" fill="#001868"/>
        <path id="Path_349" data-name="Path 349" d="M332.237,305.329a5.374,5.374,0,1,0,7.548-.9,5.374,5.374,0,0,0-7.548.9Z" transform="translate(143.416 -14.678)" fill="#c8987e"/>
        <path id="Path_350" data-name="Path 350" d="M331.124,324.177l10.169,3.478,13.469-35.218a6.911,6.911,0,0,0-3.921-9.682h0c-3.982-1.362-11.206,2.589-11.988,6.724Z" transform="translate(143.446 -31.299)" fill="#c8987e"/>
        <path id="Path_351" data-name="Path 351" d="M313.5,337.727h64.864l-6.02-18.152-46.969,3.92A14.469,14.469,0,0,0,313.5,337.727Z" transform="translate(129.36 -1.652)" fill="#ddd"/>
        <path id="Path_352" data-name="Path 352" d="M236.777,233.008h-4.71l7.51-15.819h6.893Z" transform="translate(185.426 173.585)" fill="#c8987e"/>
        <path id="Path_353" data-name="Path 353" d="M267.38,231.642h-4.71l-3.6-14.453h6.893Z" transform="translate(207.009 173.585)" fill="#c8987e"/>
        <path id="Path_354" data-name="Path 354" d="M336.082,367.24l3.778,1.654,3.5-1.654,3.143,10.256H317.359c0-5.131,10.957-5.131,10.957-5.131Z" transform="translate(132.445 36.443)" fill="#1b3874"/>
        <path id="Path_355" data-name="Path 355" d="M307.317,367.24l3.778,1.654,3.5-1.654,3.143,10.256H288.594c0-5.131,10.957-5.131,10.957-5.131Z" transform="translate(109.455 36.443)" fill="#1b3874"/>
        <path id="Path_356" data-name="Path 356" d="M231.691,255.669l11,2.742L281.7,189.139l-22.947-5.292Z" transform="translate(185.126 146.937)" fill="#ddd"/>
        <path id="Path_357" data-name="Path 357" d="M320.391,340.471l22.051,4.584,59.1-25.482h-34.7l-34.581,6.657a14.466,14.466,0,0,0-11.868,14.241Z" transform="translate(134.868 -1.654)" fill="#f5f5f5"/>
        <path id="Path_358" data-name="Path 358" d="M391.743,319.573a29.786,29.786,0,0,1,1.758,10.893c-.1,6.67-4.5,10.808-9.486,13.05-4.176,1.877-9.856,1.54-13.379,1.54H332.647l24.4-25.479Z" transform="translate(144.663 -1.654)" fill="#f5f5f5"/>
        <path id="Path_359" data-name="Path 359" d="M264.775,252.1l11,1.371-.668-60.575-22.051-4.584Z" transform="translate(202.202 150.505)" fill="#f5f5f5"/>
        <path id="Path_360" data-name="Path 360" d="M248.473,174.542l32.293-2.634,2.985-12.49-35.278,9.871Z" transform="translate(198.538 127.412)" fill="#c8987e"/>
        <path id="Path_361" data-name="Path 361" d="M387.288,351.622l-10.382-72.149L340.022,282.9l-1.8,10.191c-.261,18.181,19.1,49.479,14.374,58.533Z" transform="translate(149.118 -33.703)" fill="#ffcb4c"/>
        <path id="Path_362" data-name="Path 362" d="M332.188,313.754l14.574,3.917,7.782-23.93a8.886,8.886,0,0,0-6.27-12.235h0a8.888,8.888,0,0,0-10.495,6.528Z" transform="translate(144.296 -32.239)" fill="#ffcb4c"/>
        <path id="Path_363" data-name="Path 363" d="M277.77,175.643l33.369-2.981,1.907-12.143L277.77,170.39Z" transform="translate(221.953 128.292)" fill="#c8987e"/>
        <path id="Path_364" data-name="Path 364" d="M360.333,308.629a6.076,6.076,0,1,0,6.861-5.171A6.076,6.076,0,0,0,360.333,308.629Z" transform="translate(166.743 -14.582)" fill="#c8987e"/>
        <path id="Path_365" data-name="Path 365" d="M354.21,309.544l-4.43-1.13a11.716,11.716,0,0,0-10.3,2.269l-5.785,4.71,20.511-.648Z" transform="translate(145.506 -10.863)" fill="#c8987e"/>
        <path id="Path_366" data-name="Path 366" d="M364.1,326.4l12.055-.344-5.1-38.784c-.081-4.208-3.69-5.97-7.845-5.293h0c-4.153.677-8.66,7.557-7.4,11.582Z" transform="translate(163.004 -31.812)" fill="#c8987e"/>
        <path id="Path_367" data-name="Path 367" d="M360.937,317.589l14.894-2.656-3.388-27.111a8.886,8.886,0,0,0-11.181-8.008h0a8.885,8.885,0,0,0-6.339,10.615Z" transform="translate(162.277 -33.675)" fill="#ffcb4c"/>
        <path id="Path_368" data-name="Path 368" d="M450.768,315.088H283.439a2.472,2.472,0,0,1-2.47-2.472h0a2.472,2.472,0,0,1,2.47-2.472H450.768a2.472,2.472,0,0,1,2.47,2.472h0a2.472,2.472,0,0,1-2.47,2.472Z" transform="translate(103.361 -9.19)" fill="#1b3874"/>
        <path id="Path_369" data-name="Path 369" d="M275.707,421.545h0a1.419,1.419,0,0,1-1.382-1.749l25.628-107.664h5.632L277.08,420.487A1.423,1.423,0,0,1,275.707,421.545Z" transform="translate(98.02 -7.601)" fill="#1b3874"/>
        <path id="Path_370" data-name="Path 370" d="M398.367,421.545h0a1.42,1.42,0,0,0,1.38-1.749L374.119,312.132H368.5l28.507,108.355A1.42,1.42,0,0,0,398.367,421.545Z" transform="translate(173.318 -7.601)" fill="#1b3874"/>
        <path id="Path_371" data-name="Path 371" d="M339.889,421.545h0a1.419,1.419,0,0,1-1.382-1.749l25.628-107.664h5.633L341.262,420.487A1.423,1.423,0,0,1,339.889,421.545Z" transform="translate(149.316 -7.601)" fill="#1b3874"/>
        <path id="Path_372" data-name="Path 372" d="M343.408,281.736l.3.97a9.356,9.356,0,0,0,8.948,6.632h0a9.356,9.356,0,0,0,9.313-8.457l.079-.827Z" transform="translate(153.264 -33.239)" fill="#c8987e"/>
        <path id="Path_373" data-name="Path 373" d="M281.644,177.573h-39.93l-12.336-24.831h39.93Z" transform="translate(183.277 122.076)" fill="#006dff"/>
        <rect id="Rectangle_21" data-name="Rectangle 21" width="51.397" height="1.997" transform="translate(428.065 298.959)" fill="#006dff"/>
        <path id="Path_374" data-name="Path 374" d="M273.8,267.176l9.2-11.261-30.889-27.251a6.787,6.787,0,0,0-10.137,1.545h0c-2.2,3.492-.3,10.911,4.192,15.079S273.8,267.176,273.8,267.176Z" transform="translate(71.46 -75.605)" fill="#f5f5f5"/>
        <rect id="Rectangle_22" data-name="Rectangle 22" width="5.81" height="7.161" transform="translate(302.76 369.014)" fill="#e7afa7"/>
        <path id="Path_375" data-name="Path 375" d="M141.5,212.256h5.812l2.679-7.161h-5.812Z" transform="translate(113.04 163.919)" fill="#e7afa7"/>
        <path id="Path_376" data-name="Path 376" d="M177.6,93.221l-15.7,1.261,4.924-18.509,9,1.416Z" transform="translate(129.35 60.721)" fill="#e7afa7"/>
        <path id="Path_377" data-name="Path 377" d="M227.889,297.308l-9.1-62.18a5.74,5.74,0,0,1,4.795-7.085l41.625-1.056a5.74,5.74,0,0,1,6.508,5.554L268.656,294.3Z" transform="translate(53.524 -75.693)" fill="#f5f5f5"/>
        <path id="Path_378" data-name="Path 378" d="M156.435,124.507l15.6,20.918,2.987,129.726h11.97L197.211,121.5Z" transform="translate(124.979 97.106)" fill="#0c277b"/>
        <path id="Path_379" data-name="Path 379" d="M269.568,264.684l-3.712,20.162a9.741,9.741,0,0,1-9.581,7.978h0l-38.39,124.957h-9.808l28.234-150.643Z" transform="translate(45.103 -45.523)" fill="#0037a2"/>
        <path id="Path_380" data-name="Path 380" d="M224.418,223.81a14.959,14.959,0,0,0,28.942-4.041c.322-4.163,2.83-7.884,2.944-12.1.13-4.786-4.091-7.253-8.523-6.477-2.395.416-4.638,1.459-7.017,1.97-2.053.443-4.171.48-6.242.831a11.464,11.464,0,0,0-6.276,3.194,15.325,15.325,0,0,0-4.309,7.737,15.71,15.71,0,0,0,.48,8.888Z" transform="translate(57.44 -96.382)" fill="#1a55b5"/>
        <path id="Path_381" data-name="Path 381" d="M232.075,214.729a2.85,2.85,0,1,1-.919-1.98,2.852,2.852,0,0,1,.919,1.98Z" transform="translate(59.727 -87.633)" fill="#e7afa7"/>
        <path id="Path_382" data-name="Path 382" d="M242.705,206.349a8.913,8.913,0,0,1,5.758,3.012,8.658,8.658,0,0,1,2.08,5.263h0l.072,1.7a1.438,1.438,0,0,1-.029.23l.036-.049.2,4.739c.273,6.533-4.342,12.357-10.538,12.719a11.54,11.54,0,0,1-11.907-11.351l-.245-5.808v-.011S227.734,205.422,242.705,206.349Z" transform="translate(61.13 -92.189)" fill="#e7afa7"/>
        <path id="Path_383" data-name="Path 383" d="M240.107,206.615a19.008,19.008,0,0,0-4.138.579,9,9,0,0,0-2.857,1.2c-2.818,1.9-1.157,6.941-.6,9.536.137.632.3,1.385-.151,1.855a1.342,1.342,0,0,1-1.862-.221,6.316,6.316,0,0,1-.955-1.862,2.233,2.233,0,0,0-1.439-1.425l1.824-11.215c.013-.081,7.1.655,7.647.705a8.4,8.4,0,0,1,2.528.851Z" transform="translate(61.112 -93.182)" fill="#1a55b5"/>
        <path id="Path_384" data-name="Path 384" d="M183.335,110.936l-28.779,13.7-2.47-13.7,29.459-8.2Z" transform="translate(121.503 82.107)" fill="#fff"/>
        <path id="Path_385" data-name="Path 385" d="M226.92,251.718a7.271,7.271,0,1,1-10.23,1.031,7.271,7.271,0,0,1,10.23-1.031Z" transform="translate(50.675 -57.197)" fill="#fff"/>
        <path id="Path_386" data-name="Path 386" d="M269.641,243.82a7.271,7.271,0,1,1-10.23,1.031,7.271,7.271,0,0,1,10.23-1.031Z" transform="translate(84.82 -63.51)" fill="#f5f5f5"/>
        <path id="Path_387" data-name="Path 387" d="M226.052,98.828l-25.436,21.137-8.064-12.024L224.013,89.6Z" transform="translate(153.844 71.608)" fill="#f5f5f5"/>
        <path id="Path_388" data-name="Path 388" d="M229.388,277.213l-14.318-2.328,3.992-39.905a8.1,8.1,0,0,1,9.57-7.613h0c4.842.9,9.788,8.582,9.788,15.894S229.388,277.213,229.388,277.213Z" transform="translate(50.692 -75.458)" fill="#fff"/>
        <path id="Path_389" data-name="Path 389" d="M193.973,134.257H166.729l13.708-39.07H207.68Z" transform="translate(133.206 76.077)" fill="#ffcb4c"/>
        <path id="Path_390" data-name="Path 390" d="M252.52,247.051h0a3.438,3.438,0,0,1-2.924,4.111l-7.821,1.011-4.187,2.674-1.8-6.837,1.752-1.346a11.366,11.366,0,0,1,6.922-2.35h4.678A3.438,3.438,0,0,1,252.52,247.051Z" transform="translate(67.251 -61.803)" fill="#e7afa7"/>
        <path id="Path_391" data-name="Path 391" d="M296.632,230.66H286.074a11.366,11.366,0,0,0-6.923,2.35l-1.752,1.345,1.225,7.2,4.754-3.035,4.451,1.466a4.73,4.73,0,0,0,5.644-6.949h3.158a1.187,1.187,0,0,0,0-2.373Z" transform="translate(100.508 -72.716)" fill="#e7afa7"/>
        <path id="Path_392" data-name="Path 392" d="M217.287,350.148l-3.778,1.654-3.5-1.654L206.862,360.4H236.01c0-5.131-10.957-5.131-10.957-5.131Z" transform="translate(44.132 22.783)" fill="#006dff"/>
        <path id="Path_393" data-name="Path 393" d="M244.062,350.148l-3.778,1.654-3.5-1.654L233.637,360.4h29.148c0-5.131-10.957-5.131-10.957-5.131Z" transform="translate(65.531 22.783)" fill="#006dff"/>
        <g id="Group_30" data-name="Group 30" transform="translate(105.907 75.244)" opacity="0.4" style="mix-blend-mode: multiply;isolation: isolate">
          <rect id="Rectangle_23" data-name="Rectangle 23" width="129.072" height="129.072" rx="6.884" fill="#81acea"/>
        </g>
        <rect id="Rectangle_24" data-name="Rectangle 24" width="129.072" height="129.072" rx="6.884" transform="translate(102.825 72.16)" fill="#fff"/>
        <path id="Path_394" data-name="Path 394" d="M235.094,200H133.714a3.4,3.4,0,0,1-3.4-3.4h0a3.4,3.4,0,0,1,3.4-3.4h101.38a3.4,3.4,0,0,1,3.4,3.4h0a3.4,3.4,0,0,1-3.4,3.4Z" transform="translate(-17.044 -102.646)" fill="#e8e8e8"/>
        <path id="Path_395" data-name="Path 395" d="M235.094,206.809H133.714a3.4,3.4,0,0,1-3.4-3.4h0a3.4,3.4,0,0,1,3.4-3.4h101.38a3.4,3.4,0,0,1,3.4,3.4h0a3.393,3.393,0,0,1-3.4,3.4Z" transform="translate(-17.044 -97.205)" fill="#e8e8e8"/>
        <path id="Path_396" data-name="Path 396" d="M141.913,258.848H130.319V232.262a5.8,5.8,0,0,1,5.8-5.8h0a5.8,5.8,0,0,1,5.8,5.8Z" transform="translate(-17.044 -76.069)" fill="#6dacfa"/>
        <path id="Path_397" data-name="Path 397" d="M155.332,263.861H143.738V225.989a5.8,5.8,0,0,1,5.8-5.8h0a5.8,5.8,0,0,1,5.8,5.8Z" transform="translate(-6.319 -81.083)" fill="#a2dfff"/>
        <path id="Path_398" data-name="Path 398" d="M168.75,253.832H157.156V238.538a5.8,5.8,0,0,1,5.8-5.8h0a5.8,5.8,0,0,1,5.8,5.8Z" transform="translate(4.405 -71.053)" fill="#d1d5d8"/>
        <path id="Path_399" data-name="Path 399" d="M182.17,263.861H170.576V225.989a5.8,5.8,0,0,1,5.8-5.8h0a5.8,5.8,0,0,1,5.8,5.8Z" transform="translate(15.131 -81.083)" fill="#a2dfff"/>
        <path id="Path_400" data-name="Path 400" d="M195.585,268.876H184v-49.16a5.8,5.8,0,0,1,5.8-5.8h0a5.8,5.8,0,0,1,5.8,5.8Z" transform="translate(25.86 -86.097)" fill="#45a0ff"/>
        <g id="Group_31" data-name="Group 31" transform="translate(429.474 67.223)" opacity="0.4" style="mix-blend-mode: multiply;isolation: isolate">
          <rect id="Rectangle_25" data-name="Rectangle 25" width="123.069" height="23.266" rx="6.465" fill="#81acea"/>
        </g>
        <path id="Path_401" data-name="Path 401" d="M416.642,201.789H316.837A11.634,11.634,0,0,1,305.2,190.157h0a11.632,11.632,0,0,1,11.634-11.632h99.805a11.632,11.632,0,0,1,11.632,11.632h0a11.633,11.633,0,0,1-11.63,11.632Z" transform="translate(122.729 -114.384)" fill="#f6c157"/>
        <g id="Group_32" data-name="Group 32" transform="translate(429.474 143.221)" opacity="0.4" style="mix-blend-mode: multiply;isolation: isolate">
          <path id="Path_402" data-name="Path 402" d="M417.5,245.743H317.694a11.634,11.634,0,0,1-11.634-11.632h0a11.634,11.634,0,0,1,11.634-11.634H417.5a11.633,11.633,0,0,1,11.632,11.632v0a11.633,11.633,0,0,1-11.63,11.632Z" transform="translate(-306.06 -222.477)" fill="#81acea"/>
        </g>
        <path id="Path_403" data-name="Path 403" d="M416.642,244.028H316.837A11.632,11.632,0,0,1,305.2,232.394v0a11.632,11.632,0,0,1,11.634-11.632h99.805A11.632,11.632,0,0,1,428.274,232.4h0a11.632,11.632,0,0,1-11.632,11.632Z" transform="translate(122.729 -80.625)" fill="#fff"/>
        <g id="Group_33" data-name="Group 33" transform="translate(397.639 105.223)" opacity="0.4" style="mix-blend-mode: multiply;isolation: isolate">
          <path id="Path_404" data-name="Path 404" d="M399.8,224.622H300a11.631,11.631,0,0,1-11.632-11.634v0A11.631,11.631,0,0,1,300,201.358h99.8a11.631,11.631,0,0,1,11.632,11.634v0A11.631,11.631,0,0,1,399.8,224.622Z" transform="translate(-288.366 -201.358)" fill="#81acea"/>
        </g>
        <path id="Path_405" data-name="Path 405" d="M398.946,222.91H299.141a11.632,11.632,0,0,1-11.632-11.634h0a11.632,11.632,0,0,1,11.632-11.632h99.805a11.632,11.632,0,0,1,11.632,11.632h0a11.632,11.632,0,0,1-11.634,11.634Z" transform="translate(108.588 -97.505)" fill="#389dff"/>
        <path id="Path_406" data-name="Path 406" d="M382.549,188.843H318.6a2.889,2.889,0,0,1-2.891-2.891h0a2.89,2.89,0,0,1,2.891-2.89h63.95a2.89,2.89,0,0,1,2.89,2.89h0a2.89,2.89,0,0,1-2.89,2.891Z" transform="translate(131.125 -110.758)" fill="#fff"/>
        <circle id="Ellipse_3" data-name="Ellipse 3" cx="2.891" cy="2.891" r="2.891" transform="translate(523.759 72.302)" fill="#fff"/>
        <path id="Path_407" data-name="Path 407" d="M367.255,210.284h-63.95a2.889,2.889,0,0,1-2.891-2.891h0a2.89,2.89,0,0,1,2.891-2.89h63.95a2.891,2.891,0,0,1,2.891,2.89h0a2.891,2.891,0,0,1-2.891,2.891Z" transform="translate(118.902 -93.622)" fill="#f6c157"/>
        <path id="Path_408" data-name="Path 408" d="M348.952,207.393a2.891,2.891,0,1,1-2.891-2.89,2.891,2.891,0,0,1,2.891,2.89Z" transform="translate(153.073 -93.622)" fill="#f6c157"/>
        <rect id="Rectangle_26" data-name="Rectangle 26" width="69.731" height="5.781" rx="1.607" transform="translate(448.114 149.457)" fill="#6dacfa"/>
        <path id="Path_409" data-name="Path 409" d="M364.957,228.834a2.891,2.891,0,1,1-2.89-2.89,2.891,2.891,0,0,1,2.89,2.89Z" transform="translate(165.865 -76.485)" fill="#6dacfa"/>
        <path id="Path_410" data-name="Path 410" d="M398.216,386.218c3.6-4.16,8.172-7.749,9.612-13,1.052-3.834.221-7.893-.189-11.85s-.266-8.329,2.292-11.373a15.044,15.044,0,0,1,8.636-4.288,31.956,31.956,0,0,0,9.39-2.755c4.617-2.647,3.7-7.15,6.175-11.1,2.782-4.432,9.252-10.085,14.8-7.141,5.873,3.116,4.942,12.578,1.036,16.756-2.593,2.773-5.91,5.432-6.3,9.207-.574,5.684,5.937,10.8,4.147,16.225-1.324,4.007-6.373,5.383-8.868,8.787-2.467,3.368-1.97,8.086-.516,12s3.741,7.532,4.644,11.607c1.85,8.339-4.692,14.1-12.148,15.961-6.852,1.709-21.627.9-21.627.9a28.273,28.273,0,0,1-14.018-11.538,14.676,14.676,0,0,1-.8-12.739A21.277,21.277,0,0,1,398.216,386.218Z" transform="translate(193.218 1.805)" fill="#1a55b5"/>
        <path id="Path_411" data-name="Path 411" d="M433.044,329.352s-25.222,38.968-27.973,82.236" transform="translate(202.547 6.162)" fill="none" stroke="#fff" stroke-linecap="round" stroke-linejoin="round" stroke-width="0.288"/>
        <path id="Path_412" data-name="Path 412" d="M422.578,376.966c3.3,7.208,2.049,23.46-5.157,26.76s-17.632-7.6-20.939-14.806-14.111-46.24-6.905-49.537S419.277,369.76,422.578,376.966Z" transform="translate(188.222 13.998)" fill="#ffcb4c"/>
        <line id="Line_1" data-name="Line 1" x2="26.076" y2="58.747" transform="translate(579.838 358.121)" fill="none" stroke="#1a55b5" stroke-linecap="round" stroke-linejoin="round" stroke-width="0.353"/>
        <path id="Path_413" data-name="Path 413" d="M421.6,402.334H407.369a2.994,2.994,0,0,1-2.879-2.19l-7.148-25.576h34.29l-7.148,25.576a2.994,2.994,0,0,1-2.879,2.19Z" transform="translate(196.37 42.3)" fill="#1b3874"/>
        <path id="Path_414" data-name="Path 414" d="M86.595,326.677a5.557,5.557,0,0,1,3.489,1.259l.273.2c3.919,3,5.937,8.5,5.981,16.35a75.158,75.158,0,0,1-2.262,18.435,32.76,32.76,0,0,0-1.835-7.377,87.414,87.414,0,0,0-4.64-9.869c-1.288-2.467-2.621-5.02-3.728-7.607a13.386,13.386,0,0,1-1.42-6.938A5.038,5.038,0,0,1,86.595,326.677Z" transform="translate(-55.323 4.024)" fill="#7aa9fe"/>
        <path id="Path_415" data-name="Path 415" d="M70.348,339.456a5.554,5.554,0,0,1,3.69-.36c.113.022.225.043.336.068,4.827,1.038,9,5.146,12.4,12.217a75.16,75.16,0,0,1,5.839,17.633,32.6,32.6,0,0,0-4.813-5.869,87.611,87.611,0,0,0-8.415-6.934c-2.22-1.679-4.518-3.419-6.625-5.281a13.373,13.373,0,0,1-4.253-5.664,5.038,5.038,0,0,1,1.841-5.81Z" transform="translate(-66.68 13.819)" fill="#7aa9fe"/>
        <path id="Path_416" data-name="Path 416" d="M67.431,353.686a3.8,3.8,0,0,1,1.668-1.907q.1-.065.2-.124c2.888-1.747,6.886-1.657,11.893.264a51.457,51.457,0,0,1,11.17,6.033,22.469,22.469,0,0,0-5.148-.666,59.816,59.816,0,0,0-7.436.5c-1.891.205-3.847.419-5.768.477a9.153,9.153,0,0,1-4.77-.822,3.442,3.442,0,0,1-1.808-3.751Z" transform="translate(-67.361 22.99)" fill="#7aa9fe"/>
        <path id="Path_417" data-name="Path 417" d="M82.864,401.247s19.666-25.909,4.944-71.989" transform="translate(-54.971 6.087)" fill="none" stroke="#1a55b5" stroke-linecap="round" stroke-linejoin="round" stroke-width="0.499"/>
        <path id="Path_418" data-name="Path 418" d="M91.756,390.712s6.218-28.158-20.018-48.272" transform="translate(-63.864 16.622)" fill="none" stroke="#1a55b5" stroke-linecap="round" stroke-linejoin="round" stroke-width="0.499"/>
        <path id="Path_419" data-name="Path 419" d="M90.874,356.819s-4.8-4.266-21.542-4.4" transform="translate(-65.787 24.601)" fill="none" stroke="#1a55b5" stroke-linecap="round" stroke-linejoin="round" stroke-width="0.499"/>
        <path id="Path_420" data-name="Path 420" d="M111.651,347.6a9.536,9.536,0,0,1-3.393,3.73c-1.619,1.18-3.363,2.256-5.049,3.3a62.215,62.215,0,0,0-6.429,4.349,23.225,23.225,0,0,0-3.805,3.841,53.525,53.525,0,0,1,5.32-12.107c2.879-4.784,6.117-7.415,9.606-7.828l.243-.025a3.959,3.959,0,0,1,2.593.5,3.588,3.588,0,0,1,.914,4.243Z" transform="translate(-46.89 16.923)" fill="#7aa9fe"/>
        <path id="Path_421" data-name="Path 421" d="M117.51,361.529a9.517,9.517,0,0,1-4.662,1.918c-1.968.376-4.005.6-5.975.822a62.174,62.174,0,0,0-7.674,1.18,23.364,23.364,0,0,0-5.083,1.844,53.613,53.613,0,0,1,9.989-8.667c4.655-3.087,8.7-4.084,12.033-2.963.077.025.155.052.23.081a3.958,3.958,0,0,1,2.129,1.56,3.584,3.584,0,0,1-.988,4.225Z" transform="translate(-45.978 26.835)" fill="#7aa9fe"/>
        <path id="Path_422" data-name="Path 422" d="M109.157,369.628a6.5,6.5,0,0,1-3.219-1.231c-1.153-.736-2.274-1.578-3.356-2.391A42.4,42.4,0,0,0,98.213,363a15.866,15.866,0,0,0-3.392-1.466,36.638,36.638,0,0,1,9.03.371c3.762.648,6.242,2.048,7.377,4.167.027.049.052.1.076.148a2.7,2.7,0,0,1,.327,1.774A2.449,2.449,0,0,1,109.157,369.628Z" transform="translate(-45.415 31.781)" fill="#7aa9fe"/>
        <path id="Path_423" data-name="Path 423" d="M88.533,390.233s-2.607-23.009,23.165-45.85" transform="translate(-50.5 18.175)" fill="none" stroke="#1a55b5" stroke-linecap="round" stroke-linejoin="round" stroke-width="0.499"/>
        <path id="Path_424" data-name="Path 424" d="M88.5,379.749A35.625,35.625,0,0,1,118.311,357.5" transform="translate(-50.467 28.658)" fill="none" stroke="#1a55b5" stroke-linecap="round" stroke-linejoin="round" stroke-width="0.499"/>
        <path id="Path_425" data-name="Path 425" d="M94.694,361.639s4.487-.865,14.781,5.148" transform="translate(-45.516 31.932)" fill="none" stroke="#1a55b5" stroke-linecap="round" stroke-linejoin="round" stroke-width="0.499"/>
        <path id="Path_426" data-name="Path 426" d="M105.906,400.779H88.475a3.669,3.669,0,0,1-3.534-2.681L76.19,366.777h42L109.44,398.1A3.671,3.671,0,0,1,105.906,400.779Z" transform="translate(-60.305 36.073)" fill="#1b3874"/>
      </g>
    </g>
  </g>
</svg>
