<svg xmlns="http://www.w3.org/2000/svg" width="42.909" height="39.332" viewBox="0 0 42.909 39.332">
  <g id="checkmark" transform="translate(0 -0.008)">
    <path id="Path_308" data-name="Path 308" d="M19.666,39.34A19.666,19.666,0,1,1,30.275,3.117a1.342,1.342,0,0,1-1.45,2.258,16.982,16.982,0,1,0,7.825,14.3c0-.56-.027-1.114-.079-1.659a1.341,1.341,0,1,1,2.669-.259q.091.947.091,1.918A19.689,19.689,0,0,1,19.666,39.34Zm0,0" transform="translate(0)" fill="#2e82ff" opacity="0.303"/>
    <path id="Path_309" data-name="Path 309" d="M158.725,43.695a1.331,1.331,0,0,1-.947-.393l-8.045-8.045a1.341,1.341,0,0,1,1.9-1.9l7.1,7.1L177.444,21.74a1.341,1.341,0,0,1,1.9,1.9L159.675,43.3A1.343,1.343,0,0,1,158.725,43.695Zm0,0" transform="translate(-136.825 -19.551)" fill="#2e82ff"/>
  </g>
</svg>
