<svg xmlns="http://www.w3.org/2000/svg" xmlns:xlink="http://www.w3.org/1999/xlink" width="728" height="692.372" viewBox="0 0 728 692.372">
  <defs>
    <linearGradient id="linear-gradient" x1="-13.929" y1="1" x2="-13.929" gradientUnits="objectBoundingBox">
      <stop offset="0" stop-color="gray" stop-opacity="0.251"/>
      <stop offset="0.54" stop-color="gray" stop-opacity="0.122"/>
      <stop offset="1" stop-color="gray" stop-opacity="0.102"/>
    </linearGradient>
  </defs>
  <g id="Group_34" data-name="Group 34" transform="translate(-1040 -1838)">
    <rect id="Rectangle_7" data-name="Rectangle 7" width="728" height="692" transform="translate(1040 1838)" fill="#2e82ff" opacity="0.082"/>
    <g id="undraw_prototyping_process_rswj" transform="translate(1056.581 1989.316)">
      <ellipse id="Ellipse_4" data-name="Ellipse 4" cx="149.822" cy="22.71" rx="149.822" ry="22.71" transform="translate(331.963 495.636)" fill="#1360f9" opacity="0.1"/>
      <path id="Path_427" data-name="Path 427" d="M528.969,45.028C505.206,24.084,467.9,19.795,433.935,21.485,327.274,26.734,231,77.623,147.7,135.2c-30.154,20.849-59.841,43.307-79.409,72.016C28.449,265.642,40.271,346.59,95.67,394.723c18.849,16.4,41.7,28.936,65.152,40.064,41.711,19.789,86.714,35.673,134.052,40.2,33.756,3.224,67.928.6,101.488-3.9,93.767-12.566,185.805-40.373,262.943-87.919,33.831-20.83,65.72-46.782,79.668-80.526s5.047-76.5-29.529-96.467c-14.288-8.264-31.371-11.986-48.095-15.5-24.6-5.154-49.634-10.238-71.852-20.717-22.943-10.831-50.113-31.769-45.571-55.728C548.8,88.511,552.727,65.934,528.969,45.028Z" transform="translate(-44.761 -21.152)" fill="#1360f9" opacity="0.1"/>
      <path id="Path_428" data-name="Path 428" d="M916.459,85.618c-4.264,28.11,7.6,53.223,7.6,53.223s18.78-20.458,23.057-48.568c2.391-15.771-.29-30.583-3.1-40.562a6.939,6.939,0,0,0-12.547-1.892C925.808,56.5,918.85,69.854,916.459,85.618Z" transform="translate(-796.834 -29.81)" fill="#1360f9"/>
      <path id="Path_429" data-name="Path 429" d="M1064.772,180.64a48.518,48.518,0,0,0-12.522,1.583,6.954,6.954,0,0,0-.145,13.43,48.671,48.671,0,0,0,12.484,1.855c15.474.17,28.11-8.131,28.11-8.131S1080.247,180.81,1064.772,180.64Z" transform="translate(-1024.443 -80.03)" fill="#1360f9"/>
      <path id="Path_430" data-name="Path 430" d="M1025.9,103.355c14.4,15.828,17.449,36.513,17.449,36.513s-20.3-4.984-34.7-20.817a71.673,71.673,0,0,1-13.538-22.59,6.939,6.939,0,0,1,9.538-8.705A71.266,71.266,0,0,1,1025.9,103.355Z" transform="translate(-942.057 -45.478)" fill="#1360f9"/>
      <rect id="Rectangle_27" data-name="Rectangle 27" width="324.247" height="390.466" rx="19.8" transform="translate(53.621 54.894)" fill="#464353"/>
      <rect id="Rectangle_28" data-name="Rectangle 28" width="268.305" height="311.687" transform="translate(81.593 94.283)" fill="#1360f9" opacity="0.1"/>
      <circle id="Ellipse_5" data-name="Ellipse 5" cx="11.418" cy="11.418" r="11.418" transform="translate(204.327 415.105)" fill="#fff"/>
      <path id="Path_431" data-name="Path 431" d="M810.074,146.607a5.394,5.394,0,1,0-5.394-5.394,5.394,5.394,0,0,0,5.394,5.394Z" transform="translate(-594.328 -63.484)" fill="#fff"/>
      <path id="Path_432" data-name="Path 432" d="M809.807,135.951a5.078,5.078,0,1,0,5.078,5.078,5.078,5.078,0,0,0-5.078-5.078m0-.631a5.677,5.677,0,1,1-4.026,1.674A5.709,5.709,0,0,1,809.807,135.32Z" transform="translate(-594.062 -63.299)" fill="#fff"/>
      <rect id="Rectangle_29" data-name="Rectangle 29" width="55.646" height="75.649" rx="4.3" transform="translate(281.787 190.838)" fill="#fff" stroke="#fff" stroke-miterlimit="10" stroke-width="1"/>
      <rect id="Rectangle_30" data-name="Rectangle 30" width="45.212" height="24.003" rx="7.14" transform="translate(287.004 209.901)" fill="#1360f9" opacity="0.5"/>
      <rect id="Rectangle_31" data-name="Rectangle 31" width="26.337" height="3.728" rx="1.69" transform="translate(296.441 243.695)" fill="#1360f9"/>
      <rect id="Rectangle_32" data-name="Rectangle 32" width="55.646" height="75.649" rx="4.3" transform="translate(187.711 190.838)" fill="#fff" stroke="#fff" stroke-miterlimit="10" stroke-width="1"/>
      <rect id="Rectangle_33" data-name="Rectangle 33" width="26.665" height="14.156" rx="1.46" transform="translate(202.056 202.653)" fill="#1360f9" opacity="0.5"/>
      <rect id="Rectangle_34" data-name="Rectangle 34" width="34.04" height="3.728" rx="1.69" transform="translate(198.58 230.075)" fill="#1360f9"/>
      <rect id="Rectangle_35" data-name="Rectangle 35" width="34.04" height="3.728" rx="1.69" transform="translate(198.58 237.027)" fill="#1360f9"/>
      <rect id="Rectangle_36" data-name="Rectangle 36" width="55.646" height="75.649" rx="4.3" transform="translate(94.058 137.097)" fill="#fff" stroke="#fff" stroke-miterlimit="10" stroke-width="1"/>
      <rect id="Rectangle_37" data-name="Rectangle 37" width="36.229" height="16.906" rx="1.46" transform="translate(103.766 148.837)" fill="#1360f9" opacity="0.5"/>
      <rect id="Rectangle_38" data-name="Rectangle 38" width="36.229" height="16.906" rx="1.46" transform="translate(103.766 173.408)" fill="#1360f9" opacity="0.5"/>
      <rect id="Rectangle_39" data-name="Rectangle 39" width="11.885" height="5.217" rx="2.608" transform="translate(131.006 203.94)" fill="#1360f9"/>
      <rect id="Rectangle_40" data-name="Rectangle 40" width="11.885" height="5.217" rx="2.608" transform="translate(115.935 203.94)" fill="#1360f9"/>
      <rect id="Rectangle_41" data-name="Rectangle 41" width="11.885" height="5.217" rx="2.608" transform="translate(100.864 203.94)" fill="#1360f9"/>
      <rect id="Rectangle_42" data-name="Rectangle 42" width="55.646" height="75.649" rx="4.3" transform="translate(94.19 244.578)" fill="#fff" stroke="#fff" stroke-miterlimit="10" stroke-width="1"/>
      <rect id="Rectangle_43" data-name="Rectangle 43" width="16.629" height="16.906" rx="1.46" transform="translate(128.911 253.422)" fill="#1360f9" opacity="0.5"/>
      <rect id="Rectangle_44" data-name="Rectangle 44" width="34.04" height="3.728" rx="1.69" transform="translate(104.99 280.624)" fill="#1360f9"/>
      <rect id="Rectangle_45" data-name="Rectangle 45" width="34.04" height="3.728" rx="1.69" transform="translate(104.99 288.162)" fill="#1360f9"/>
      <rect id="Rectangle_46" data-name="Rectangle 46" width="34.04" height="3.728" rx="1.69" transform="translate(104.99 295.701)" fill="#1360f9"/>
      <path id="Path_433" data-name="Path 433" d="M717.8,378.019l.852.41,6.9,3.318.631.3a.341.341,0,0,0,.46-.183.37.37,0,0,0,0-.126v-1.962a.334.334,0,0,1,.334-.334h16.774a.341.341,0,0,0,.341-.334v-2.769a.341.341,0,0,0-.341-.334H726.962a.341.341,0,0,1-.334-.341v-2.006a.413.413,0,0,0,0-.126.341.341,0,0,0-.461-.177l-.631.3L718.654,377l-.852.416a.334.334,0,0,0,0,.606Z" transform="translate(-468.03 -151.161)" fill="#fff" stroke="#fff" stroke-miterlimit="10" stroke-width="1"/>
      <path id="Path_434" data-name="Path 434" d="M869.267,353.5l.555.763,4.517,6.157.4.549a.347.347,0,0,0,.492.057.3.3,0,0,0,.076-.1l.921-1.728a.347.347,0,0,1,.46-.145l14.825,7.892a.334.334,0,0,0,.454-.139l1.3-2.454a.334.334,0,0,0-.139-.454L878.3,356.018a.334.334,0,0,1-.139-.454l.94-1.773a.221.221,0,0,0,.038-.12.328.328,0,0,0-.322-.372h-.675l-7.646-.278-.946-.031a.334.334,0,0,0-.284.511Z" transform="translate(-712.877 -143.656)" fill="#fff" stroke="#fff" stroke-miterlimit="10" stroke-width="1"/>
      <path id="Path_435" data-name="Path 435" d="M869.225,397.39h9.254a.334.334,0,0,0,.334-.36.285.285,0,0,0-.031-.12l-.845-1.773a.334.334,0,0,1,.158-.448l15.14-7.267a.341.341,0,0,0,.158-.454l-1.2-2.492a.328.328,0,0,0-.448-.158l-15.14,7.273a.347.347,0,0,1-.454-.158l-.871-1.811a.328.328,0,0,0-.562-.063l-.423.524-4.75,6.006-.587.744a.334.334,0,0,0,.265.555Z" transform="translate(-712.784 -155.209)" fill="#fff" stroke="#fff" stroke-miterlimit="10" stroke-width="1"/>
      <path id="Path_436" data-name="Path 436" d="M410.43,606.484l.05,1.848L413.7,721.926h5.413l-2.656-113.594-.05-2.132Z" transform="translate(22.491 -223.785)" fill="#504f60"/>
      <path id="Path_437" data-name="Path 437" d="M410.43,606.484l.05,1.848L413.7,721.926h5.413l-2.656-113.594-.05-2.132Z" transform="translate(22.491 -223.785)" opacity="0.1"/>
      <path id="Path_438" data-name="Path 438" d="M366.89,756.022l4.05-.013,60.213-.126,3.2-.006-1.7-5.267H367.319Z" transform="translate(34.711 -277.097)" fill="#504f60"/>
      <path id="Path_439" data-name="Path 439" d="M414.64,606.484l.05,1.848h5.974l-.05-2.132Z" transform="translate(18.281 -223.785)" opacity="0.1"/>
      <rect id="Rectangle_47" data-name="Rectangle 47" width="10.037" height="3.772" transform="translate(430.638 379.923)" fill="#504f60"/>
      <path id="Path_440" data-name="Path 440" d="M366.89,750.61l.536,5.274,3.2-.006-1.7-5.267Z" transform="translate(98.437 -277.097)" opacity="0.1"/>
      <path id="Path_441" data-name="Path 441" d="M355.38,602.14l.17,1.634L368.905,735.51l6.119-.284L360.95,603.774l-.158-1.5Z" transform="translate(101.305 -222.286)" fill="#504f60"/>
      <path id="Path_442" data-name="Path 442" d="M466.55,756.022l4.05-.013.549-5.4h-4.17Z" transform="translate(-64.949 -277.097)" opacity="0.1"/>
      <path id="Path_443" data-name="Path 443" d="M452.86,735.226l6.125.284L472.34,603.774l.164-1.634-5.406.139-.158,1.5Z" transform="translate(-57.669 -222.286)" fill="#504f60"/>
      <rect id="Rectangle_48" data-name="Rectangle 48" width="134.941" height="129.39" transform="translate(369.144 249.959)" fill="#fff"/>
      <rect id="Rectangle_49" data-name="Rectangle 49" width="194.296" height="129.39" rx="4.13" transform="translate(339.388 249.959)" fill="#fff"/>
      <path id="Path_444" data-name="Path 444" d="M458.93,347.261v31.245h5.261V347.261a2.631,2.631,0,1,0-5.261,0Z" transform="translate(-24.942 -140.57)" fill="#504f60"/>
      <rect id="Rectangle_50" data-name="Rectangle 50" width="5.267" height="2.845" transform="translate(433.981 235.09)" opacity="0.1"/>
      <path id="Path_445" data-name="Path 445" d="M455.66,396.461v10.32h9.393v-10.32a1.262,1.262,0,0,0-1.262-1.262h-6.832a1.262,1.262,0,0,0-1.3,1.262Z" transform="translate(-23.742 -159.239)" fill="#504f60"/>
      <circle id="Ellipse_6" data-name="Ellipse 6" cx="1.993" cy="1.993" r="1.993" transform="translate(434.625 240.497)" opacity="0.1"/>
      <circle id="Ellipse_7" data-name="Ellipse 7" cx="1.993" cy="1.993" r="1.993" transform="translate(434.625 240.068)" fill="#3f3d56"/>
      <rect id="Rectangle_51" data-name="Rectangle 51" width="9.393" height="1.281" transform="translate(431.918 246.263)" opacity="0.1"/>
      <rect id="Rectangle_52" data-name="Rectangle 52" width="17.083" height="2.845" transform="translate(428.077 247.972)" opacity="0.1"/>
      <rect id="Rectangle_53" data-name="Rectangle 53" width="17.083" height="2.845" transform="translate(428.077 247.114)" fill="#504f60"/>
      <path id="Path_446" data-name="Path 446" d="M432.823,596H362.435a3.785,3.785,0,0,0-3.785,3.785H436.6A3.785,3.785,0,0,0,432.823,596Z" transform="translate(37.671 -220.02)" opacity="0.1"/>
      <path id="Path_447" data-name="Path 447" d="M383.1,602.279l-5.413-.139.17,1.634h5.4Z" transform="translate(78.995 -222.286)" opacity="0.1"/>
      <rect id="Rectangle_54" data-name="Rectangle 54" width="10.037" height="1.564" transform="translate(430.638 379.923)" opacity="0.1"/>
      <path id="Path_448" data-name="Path 448" d="M452.86,603.774h5.4l.164-1.634-5.406.139Z" transform="translate(-43.588 -222.286)" opacity="0.1"/>
      <path id="Path_449" data-name="Path 449" d="M432.823,597.4H362.435a3.785,3.785,0,0,0-3.785,3.785H436.6a3.785,3.785,0,0,0-3.785-3.785Z" transform="translate(37.671 -220.536)" fill="#504f60"/>
      <path id="Path_450" data-name="Path 450" d="M525.545,441.473a.94.94,0,0,0-1.079,1.035c.915,8.832.328,17.878-.662,26.69-.461,4.031-1.085,8.3-2.87,11.286a.953.953,0,0,0,.126,1.173,2.523,2.523,0,0,0,1.754.524l28.154.158a.94.94,0,0,0,.921-1.161c-2.265-9.652-1.779-20.187-.871-30.2.448-4.927.707-7.57-2.971-7.917-3.785-.341-7.57-.5-11.355-.814C535.784,442.174,528.5,441.959,525.545,441.473Z" transform="translate(-151.689 -176.318)" fill="#fff" stroke="#33313f" stroke-miterlimit="10" stroke-width="3"/>
      <path id="Path_451" data-name="Path 451" d="M547.265,533.163a.94.94,0,0,1,1.079,1.035c-.915,8.832-.328,17.878.669,26.69.454,4.031,1.079,8.3,2.864,11.292a.94.94,0,0,1-.126,1.167,2.523,2.523,0,0,1-1.754.524l-28.154.164a.953.953,0,0,1-.921-1.167c2.265-9.652,1.779-20.187.871-30.2-.448-4.927-.707-7.57,2.971-7.917s7.57-.5,11.355-.814C537.027,533.864,544.306,533.649,547.265,533.163Z" transform="translate(-151.865 -210.167)" fill="#fff" stroke="#33313f" stroke-miterlimit="10" stroke-width="3"/>
      <path id="Path_452" data-name="Path 452" d="M542.93,558.877a83.509,83.509,0,0,0-9.816.12.927.927,0,0,0-.833.82l-.309,2.58a.366.366,0,0,0,.076.334.347.347,0,0,0,.24.063c1.375.038,2.75-.12,4.119,0,.852.069,1.7.233,2.523.328a30.11,30.11,0,0,0,4.2.076,21.17,21.17,0,0,0,5.848-.719s-.114-2.138-.114-2.34c0-1,.031-1.085-1-1.11Z" transform="translate(-155.801 -219.63)" fill="none" stroke="#33313f" stroke-linecap="round" stroke-miterlimit="10" stroke-width="2"/>
      <path id="Path_453" data-name="Path 453" d="M542.93,574.816a82.183,82.183,0,0,1-9.816-.126.927.927,0,0,1-.833-.82l-.309-2.574a.379.379,0,0,1,.076-.341.347.347,0,0,1,.24-.063c1.375-.038,2.75.126,4.119,0,.852-.063,1.7-.227,2.523-.322a29.184,29.184,0,0,1,4.2-.076,21.17,21.17,0,0,1,5.848.719s-.114,2.132-.114,2.34c0,1,.031,1.079-1,1.11Z" transform="translate(-155.801 -223.937)" fill="none" stroke="#33313f" stroke-linecap="round" stroke-miterlimit="10" stroke-width="2"/>
      <path id="Path_454" data-name="Path 454" d="M542.93,584.537a82.145,82.145,0,0,0-9.816.126.927.927,0,0,0-.833.82l-.309,2.574a.379.379,0,0,0,.076.341.347.347,0,0,0,.24.063c1.375.038,2.75-.126,4.119,0,.852.063,1.7.233,2.523.328a30.119,30.119,0,0,0,4.2.069,21.167,21.167,0,0,0,5.848-.713s-.114-2.139-.114-2.347c0-1,.031-1.079-1-1.1Z" transform="translate(-155.801 -229.103)" fill="none" stroke="#33313f" stroke-linecap="round" stroke-miterlimit="10" stroke-width="2"/>
      <path id="Path_455" data-name="Path 455" d="M538.89,499a4.171,4.171,0,0,0-.278,2.2.329.329,0,0,0,.044.17.341.341,0,0,0,.265.095l5.993.233s-.334-1.766-.378-1.893c-.208-.719-.732-.53-1.407-.568Z" transform="translate(-155.905 -197.559)" fill="#fff" stroke="#33313f" stroke-linecap="round" stroke-miterlimit="10" stroke-width="2"/>
      <path id="Path_456" data-name="Path 456" d="M553.225,499a4.169,4.169,0,0,0-.271,2.2.322.322,0,0,0,.038.17.353.353,0,0,0,.265.095l6,.233s-.341-1.766-.385-1.893c-.2-.719-.725-.53-1.407-.568Z" transform="translate(-179.293 -197.559)" fill="#fff" stroke="#33313f" stroke-linecap="round" stroke-miterlimit="10" stroke-width="2"/>
      <path id="Path_457" data-name="Path 457" d="M527.918,451.259l-.807,6.939a1.892,1.892,0,0,0,1.722,2.088,90.089,90.089,0,0,0,15.38-.1,1.893,1.893,0,0,0,1.71-1.8,26.932,26.932,0,0,1,.542-3.678c.208-1.262.435-2.479-1.053-2.851s-3.526-.107-5.154-.139q-2.927-.057-5.835-.164C533.88,451.549,527.918,451.227,527.918,451.259Z" transform="translate(-150.371 -179.933)" fill="none" stroke="#33313f" stroke-miterlimit="10" stroke-width="3"/>
      <path id="Path_458" data-name="Path 458" d="M527.886,485.553l-.795-6.939a1.892,1.892,0,0,1,1.722-2.088,90.747,90.747,0,0,1,15.38.095,1.893,1.893,0,0,1,1.71,1.81,26.93,26.93,0,0,0,.542,3.678c.208,1.262.435,2.479-1.053,2.851s-3.526.107-5.154.139c-1.949.038-3.892.088-5.835.164C533.847,485.282,527.886,485.6,527.886,485.553Z" transform="translate(-150.339 -189.158)" fill="none" stroke="#33313f" stroke-miterlimit="10" stroke-width="3"/>
      <path id="Path_459" data-name="Path 459" d="M530.283,540.455q.315,3.463.4,6.939a32.852,32.852,0,0,0,6.882-.789,1.218,1.218,0,0,0,1.129-1.489c.044-1.438.8-4.649-1.224-4.851C536.863,540.2,530.289,540.568,530.283,540.455Z" transform="translate(-144.63 -212.79)" fill="none" stroke="#33313f" stroke-linecap="round" stroke-miterlimit="10" stroke-width="2"/>
      <path id="Path_460" data-name="Path 460" d="M333.32,490.6a2.012,2.012,0,0,0-2.221,2.189,128.734,128.734,0,0,1-.795,25.366c-.423,3.722-.984,7.639-2.473,10.573a1.653,1.653,0,0,0,1.464,2.41h0l27.933.164a1.11,1.11,0,0,0,1.091-1.35c-2.214-9.6-1.728-20.086-.826-30.015.454-4.927.707-7.57-2.965-7.917-3.785-.334-7.57-.492-11.323-.814C342.4,491.146,336.676,490.969,333.32,490.6Z" transform="translate(163.719 -194.454)" fill="#fff" stroke="#33313f" stroke-linecap="round" stroke-miterlimit="10" stroke-width="3"/>
      <path id="Path_461" data-name="Path 461" d="M447.556,490.353a1,1,0,0,1,1.148,1.11c-.9,8.788-.315,17.821.675,26.6.454,4.031,1.079,8.276,2.858,11.273a1,1,0,0,1-.265,1.306,2.643,2.643,0,0,1-1.6.4l-28.078.164a1.009,1.009,0,0,1-.978-1.262c2.239-9.633,1.76-20.155.852-30.122-.448-4.927-.706-7.57,2.965-7.917,3.785-.334,7.57-.492,11.355-.814C437.412,491.041,444.541,490.833,447.556,490.353Z" transform="translate(10.624 -194.362)" fill="#fff" stroke="#33313f" stroke-miterlimit="10" stroke-width="3"/>
      <line id="Line_2" data-name="Line 2" x1="14.282" y2="19.051" transform="translate(499.48 301.725)" fill="#fff" stroke="#33313f" stroke-linecap="round" stroke-miterlimit="10" stroke-width="2"/>
      <line id="Line_3" data-name="Line 3" x2="13.809" y2="21.429" transform="translate(499.48 300.299)" fill="#fff" stroke="#33313f" stroke-linecap="round" stroke-miterlimit="10" stroke-width="2"/>
      <line id="Line_4" data-name="Line 4" x1="7.778" y2="10.377" transform="translate(442.251 302.621)" fill="#fff" stroke="#33313f" stroke-linecap="round" stroke-miterlimit="10" stroke-width="2"/>
      <line id="Line_5" data-name="Line 5" x2="7.52" y2="11.677" transform="translate(442.251 301.839)" fill="#fff" stroke="#33313f" stroke-linecap="round" stroke-miterlimit="10" stroke-width="2"/>
      <path id="Path_462" data-name="Path 462" d="M349.671,539.247a83.628,83.628,0,0,0-9.822.12.94.94,0,0,0-.833.82l-.3,2.58a.4.4,0,0,0,.069.341.441.441,0,0,0,.24.063c1.375.038,2.757-.126,4.126,0,.852.063,1.691.227,2.523.322a30.1,30.1,0,0,0,4.2.076,21.094,21.094,0,0,0,5.841-.719c.038,0-.114-2.132-.114-2.34,0-1,.038-1.079-.99-1.11Z" transform="translate(159.373 -212.383)" fill="none" stroke="#33313f" stroke-linecap="round" stroke-miterlimit="10" stroke-width="2"/>
      <path id="Path_463" data-name="Path 463" d="M444.783,524.147a82.263,82.263,0,0,0-9.822.126.927.927,0,0,0-.833.82l-.3,2.574a.4.4,0,0,0,.069.341.353.353,0,0,0,.24.063c1.375.038,2.757-.126,4.126,0,.852.063,1.691.233,2.523.322a29.2,29.2,0,0,0,4.2.076,21.172,21.172,0,0,0,5.848-.719c.032,0-.114-2.132-.114-2.34,0-1,.032-1.079-1-1.11Z" transform="translate(4.256 -206.809)" fill="none" stroke="#33313f" stroke-linecap="round" stroke-miterlimit="10" stroke-width="2"/>
      <path id="Path_464" data-name="Path 464" d="M440.047,535.477a83.507,83.507,0,0,1,9.816.12.927.927,0,0,1,.833.82l.29,2.574a.359.359,0,0,1-.069.341.347.347,0,0,1-.24.063c-1.375.038-2.75-.12-4.126,0-.852.063-1.691.233-2.523.328a31.136,31.136,0,0,1-4.2.076,21.111,21.111,0,0,1-5.848-.719c-.032,0,.113-2.139.113-2.34,0-1-.038-1.085.99-1.11Z" transform="translate(3.99 -210.991)" fill="none" stroke="#33313f" stroke-linecap="round" stroke-miterlimit="10" stroke-width="2"/>
      <path id="Path_465" data-name="Path 465" d="M397.575,528.007s-9.28-.473-10.945,0" transform="translate(87.283 -208.189)" fill="none" stroke="#33313f" stroke-miterlimit="10" stroke-width="3"/>
      <path id="Path_466" data-name="Path 466" d="M406.154,520.21s-4.044,4.044-4.044,5,5.236,4.283,5.236,4.283" transform="translate(67.747 -205.389)" fill="none" stroke="#33313f" stroke-miterlimit="10" stroke-width="3"/>
      <path id="Path_467" data-name="Path 467" d="M492.971,512.036s-8.409-3.936-10.131-4.126" transform="translate(-68.806 -200.848)" fill="none" stroke="#33313f" stroke-miterlimit="10" stroke-width="3"/>
      <path id="Path_468" data-name="Path 468" d="M501.572,500.58s-5.267,2.221-5.627,3.1,3.23,5.942,3.23,5.942" transform="translate(-85.658 -198.142)" fill="none" stroke="#33313f" stroke-miterlimit="10" stroke-width="3"/>
      <path id="Path_469" data-name="Path 469" d="M492.541,530.43s-8.548,3.627-9.841,4.788" transform="translate(-68.287 -209.162)" fill="none" stroke="#33313f" stroke-miterlimit="10" stroke-width="3"/>
      <path id="Path_470" data-name="Path 470" d="M495.148,530.89s-1.892,5.406-1.451,6.264,6.58,1.564,6.58,1.564" transform="translate(-82.918 -209.331)" fill="none" stroke="#33313f" stroke-miterlimit="10" stroke-width="3"/>
      <path id="Path_471" data-name="Path 471" d="M526.045,499a4.169,4.169,0,0,0-.271,2.2.322.322,0,0,0,.038.17.353.353,0,0,0,.265.095l6,.233s-.341-1.766-.385-1.893c-.2-.719-.732-.53-1.407-.568Z" transform="translate(-134.967 -197.559)" fill="#fff" stroke="#33313f" stroke-linecap="round" stroke-miterlimit="10" stroke-width="2"/>
      <path id="Path_472" data-name="Path 472" d="M311.78,562.82l-2.12-1.974,1.892-.076.99,1.52Z" transform="translate(192.628 -207.014)" fill="#33313f"/>
      <path id="Path_473" data-name="Path 473" d="M302.263,577.309l-2.246-2.883-.5-.517-6.876-7.2-2.34-2.448-1.1-.133-1.577-1.564-.927.814,1.533,1.792-.025.94L290.6,568.7l6.75,7.33.435.467,2.713,2.511Z" transform="translate(217.392 -207.675)" fill="#65617d"/>
      <path id="Path_474" data-name="Path 474" d="M299.97,576.334l-6.876-7.2-2.044,1.993,6.75,7.33Z" transform="translate(216.94 -210.1)" fill="#33313f"/>
      <path id="Path_475" data-name="Path 475" d="M217.5,504.776a30.278,30.278,0,0,0,5.166-6.308c3.028-4.719,8.087-7.267,11.557-8.535V488.4l-.214-.044.095-1.426H234l.246-3.785v-.031h0l1.249-18.78s4.447-12.522-3.457-24.073-.492-22.628,6.939-26.962c0,0,3.457-18.294.492-22.628a128.463,128.463,0,0,1,12.415-6.277c.069-.227.126-.454.183-.694.082-1.7.189-3.406.284-5.11a18.59,18.59,0,0,0-.486-2.624c-.095-.36-.2-.719-.315-1.091a18.786,18.786,0,0,1-12.08-17.417,18.294,18.294,0,0,1,1.173-6.46,8.12,8.12,0,0,1-.9-2.107,8.335,8.335,0,0,1,1.173-6.006c1.981-4.277,6.92-8.283,10.5-9.765,5.135-2.082,12.863-1.59,18.212-.946,3,.36,6.428,1.363,7.513,4.113a28.658,28.658,0,0,1,.681,3.154c1.123,4.2,5.974,6.157,8.97,9.374,2.649,2.839,3.785,6.681,4.668,10.421a95.388,95.388,0,0,1,1.735,32.709c-.3,2.523-.706,5.015-1.135,7.513,1.8,2.523,3.432,6.983,2.687,14.73l5.93,27.921,2.467,16.37A14.258,14.258,0,0,1,298.734,471c-3.785,3.684-8.358,9.91-11.178,13.941a33.087,33.087,0,0,1,1.8,11.1c-.063,1.716-.158,3.375-.278,4.952a43.736,43.736,0,0,1-1.892,9.866c-.694,6.725-2.063,15.323-4.744,20.817l-.984,29.365s1.482,26.962,4.416,32.254-6.416,50.069-6.416,50.069v6.258l1.577,4.63.4-.3c7.406,9.147,0,12.516,0,12.516s-2.019.095-5.242.221a5.9,5.9,0,0,1-3.154,6.523s-41.969,1.924-49.381,0-5.431-8.668-1.476-8.2a17.961,17.961,0,0,0,5.911-.77c-2.3-2.681-.461-6.308,2.479-5.968,3.949.479,12.837-3.015,12.837-3.015l.044.057a6.611,6.611,0,0,1,.871-.265,98.8,98.8,0,0,0,9.772-2.732c1.893-4.056,6.308-14.957,3.154-23.41-1.426-3.823-1.893-8.907-1.893-13.84a157.075,157.075,0,0,0-6.5-43.944l-5.923-20.186s-8.4-24.558-8.888-31.3l.032-9.8c-6.939,4.416-12.459,3.091-15.979,1.028a3.785,3.785,0,0,1-.593-6.088Zm65.9-51.1c-.17-.707-.309-1.476-.429-2.29-1.161,0-2.328,0-3.489-.038a17.77,17.77,0,0,0-1.754,9.462c2.675-.826,6.674-2.851,5.671-7.1Z" transform="translate(289.037 -135.767)" fill="url(#linear-gradient)"/>
      <path id="Path_476" data-name="Path 476" d="M291.686,829.759l1.892,5.677-6.176,6.176-20.433,4.75-14.73-1.426.953-5.229h0a6.308,6.308,0,0,1,4.681-4.6c6.056-1.426,17.6-4.668,20.029-9.178Z" transform="translate(276.057 -318.251)" fill="#db8b8b"/>
      <path id="Path_477" data-name="Path 477" d="M291.686,829.759l1.892,5.677-6.176,6.176-20.433,4.75-14.73-1.426.953-5.229h0a6.308,6.308,0,0,1,4.681-4.6c6.056-1.426,17.6-4.668,20.029-9.178Z" transform="translate(276.057 -318.251)" opacity="0.1"/>
      <path id="Path_478" data-name="Path 478" d="M262.938,848.24l2.851-3.785-2.851-4.416s-8.548,3.451-12.352,2.978-5.677,6.176,1.426,8.075,47.514,0,47.514,0,7.128-3.324,0-12.352l-6.176,4.75s-10.453,5.677-15.682,4.75Z" transform="translate(270.115 -322.98)" fill="#2e3037"/>
      <path id="Path_479" data-name="Path 479" d="M265,855.494l14.73,1.426,20.433-4.756,6.195-6.176-.5-1.508-.707-2.12-.694-2.075L290.675,836.5a8.517,8.517,0,0,1-2.795,2.795c-4.473,3.06-12.516,5.274-17.234,6.378-.2.05-.4.107-.587.177a6.258,6.258,0,0,0-4.094,4.416Z" transform="translate(255.229 -322.153)" fill="#db8b8b"/>
      <path id="Path_480" data-name="Path 480" d="M265,860.164l14.73,1.426,20.433-4.756,6.195-6.176-.5-1.508-5.677,4.359s-10.459,5.677-15.682,4.75H269.769l2.851-3.785-2.561-3.955a6.258,6.258,0,0,0-4.094,4.416Z" transform="translate(255.229 -326.823)" opacity="0.1"/>
      <path id="Path_481" data-name="Path 481" d="M275.707,858.79l2.851-3.785-2.851-4.416s-8.554,3.451-12.352,2.977-5.678,6.176,1.419,8.081,47.521,0,47.521,0,7.128-3.331,0-12.358l-6.176,4.75s-10.459,5.677-15.682,4.756Z" transform="translate(249.291 -326.875)" fill="#2e3037"/>
      <path id="Path_482" data-name="Path 482" d="M268.05,412.743s22.8,2.372,19.48-7.128a17.033,17.033,0,0,1-.7-8.39,23.285,23.285,0,0,1,4.025-9.664l-21.379,3.324a26.7,26.7,0,0,1,2.9,6.863C274.92,407.835,268.05,412.743,268.05,412.743Z" transform="translate(268.807 -156.418)" fill="#db8b8b"/>
      <path id="Path_483" data-name="Path 483" d="M269.995,599.21s-.473,20.433-5.223,30.412l-.953,28.98s1.426,26.615,4.277,31.838-6.176,49.419-6.176,49.419v7.6s-15.2,5.677-19.48-.953l4.277-56.541-1.893-78.4Z" transform="translate(305.823 -234.553)" fill="#35323e"/>
      <path id="Path_484" data-name="Path 484" d="M269.985,599.21s-.473,20.433-5.223,30.412l-.953,28.98s1.426,26.615,4.277,31.838-6.176,49.419-6.176,49.419v7.6s-15.2,5.677-19.48-.953l4.277-56.541-1.893-78.4Z" transform="translate(305.839 -234.553)" opacity="0.1"/>
      <path id="Path_485" data-name="Path 485" d="M240.248,495.27l2.851,7.6,2.372,16.156a14.288,14.288,0,0,1-4.277,12.352c-5.677,5.677-13.3,17.581-13.3,17.581l-9.027-27.082s9.027-1.426,7.57-7.6-.946-17.581-.946-17.581Z" transform="translate(345.076 -196.182)" fill="#1360f9"/>
      <path id="Path_486" data-name="Path 486" d="M266.95,839.282c6.1,9.595,15.582,4.157,17.266,3.078l-.694-2.075L269.745,836.5A8.517,8.517,0,0,1,266.95,839.282Z" transform="translate(276.14 -322.153)" opacity="0.1"/>
      <path id="Path_487" data-name="Path 487" d="M240.167,597.724c.479,6.649,8.554,30.911,8.554,30.911l5.677,19.941a158.523,158.523,0,0,1,6.3,43.351c0,4.864.448,9.885,1.817,13.658,3.785,10.453-3.785,24.71-3.785,24.71,6.649,11.879,18.054,3.785,18.054,3.785v-7.57s9-41.357,6.624-49.432-3.331-29.939-3.331-29.939V607.7a44.726,44.726,0,0,0,13.039-28.387c.114-1.558.208-3.192.265-4.889.385-10.724-6.939-23.29-9.8-27.756-.694-1.085-1.123-1.691-1.123-1.691l-41.944,16.641-.095.038v5.217Z" transform="translate(283.859 -214.533)" fill="#35323e"/>
      <path id="Path_488" data-name="Path 488" d="M268.05,390.884a26.7,26.7,0,0,1,2.9,6.863,18.559,18.559,0,0,0,14.459-.524,23.284,23.284,0,0,1,4.025-9.664Z" transform="translate(270.233 -156.418)" opacity="0.1"/>
      <circle id="Ellipse_8" data-name="Ellipse 8" cx="18.534" cy="18.534" r="18.534" transform="translate(529.249 204.527)" fill="#db8b8b"/>
      <path id="Path_489" data-name="Path 489" d="M253,566.838l.208.038c19.922,4.094,44.922-16.667,44.922-16.667a23.966,23.966,0,0,1-1.728-3.539c-.694-1.085-1.123-1.691-1.123-1.691l-41.938,16.641-.107,1.659Z" transform="translate(271.026 -214.533)" opacity="0.1"/>
      <path id="Path_490" data-name="Path 490" d="M233.281,420.227s26.608-16.156,35.163-9.507l11.879,15.2s7.6,2.378,6.176,17.581l5.677,27.561-17.1,4.277s-9.98,9.5-1.893,23.284c0,0-25.183,20.906-45.142,16.629l1.438-22.312s4.277-12.358-3.324-23.757-.473-22.331,6.649-26.608C232.808,442.559,236.132,424.5,233.281,420.227Z" transform="translate(295.975 -164.376)" fill="#1360f9"/>
      <path id="Path_491" data-name="Path 491" d="M331.7,580.38s-9.98,1.892-14.73,9.507A29.56,29.56,0,0,1,312,596.1a3.785,3.785,0,0,0,.593,6.006c3.785,2.271,9.917,3.665,17.663-2.719C343.583,588.461,331.7,580.38,331.7,580.38Z" transform="translate(196.125 -227.602)" fill="#db8b8b"/>
      <path id="Path_492" data-name="Path 492" d="M281.916,440.793s9.5-.953,11.879,23.757,6.176,30.406,6.176,30.406,2.378,12.831-3.324,20.433S280.017,539.2,280.017,539.2s-11.885,3.331-14.257-8.554l14.73-27.555s2.372-9.507-3.324-16.156S267.186,436.062,281.916,440.793Z" transform="translate(260.644 -175.94)" opacity="0.1"/>
      <path id="Path_493" data-name="Path 493" d="M283.426,438.571s9.507-.953,11.879,23.757,6.176,30.406,6.176,30.406,2.378,12.844-3.324,20.414S281.527,536.9,281.527,536.9s-11.879,3.331-14.257-8.548L282,500.8s2.378-9.507-3.324-16.156S268.709,433.814,283.426,438.571Z" transform="translate(258.181 -175.118)" fill="#1360f9"/>
      <path id="Path_494" data-name="Path 494" d="M298.824,467s-.946,14.73,3.331,22.811,4.277,18.528,0,24.23" transform="translate(234.942 -185.745)" opacity="0.1"/>
      <path id="Path_495" data-name="Path 495" d="M264.66,433.682s3.785-3.785,14.73-4.277,15.676-3.785,15.676-3.785" transform="translate(266.734 -170.469)" opacity="0.1"/>
      <path id="Path_496" data-name="Path 496" d="M252.234,336.468c2.889.353,6.188,1.344,7.229,4.063a27.909,27.909,0,0,1,.662,3.154c1.079,4.151,5.747,6.081,8.63,9.254,2.523,2.8,3.665,6.592,4.491,10.283a96.6,96.6,0,0,1,1.7,32.261c-.927,7.879-2.82,15.632-3.356,23.549s.442,16.244,4.769,22.893c1.892,2.864,4.315,5.375,5.633,8.523-2.725,2.208-6.485,2.523-9.992,2.643q-6.132.208-12.263,0a13.081,13.081,0,0,1-6.233-1.3,9.658,9.658,0,0,1-3.274-3.507c-2.334-3.968-2.927-8.737-2.826-13.342s.826-9.179.915-13.784c.044-2.523-.151-5.173-1.6-7.229-1.041-1.483-2.624-2.479-3.981-3.684-5.091-4.5-6.832-11.733-7-18.527s.946-13.6.372-20.37c-.221-2.656-1.211-5.835-3.823-6.352a13.466,13.466,0,0,1-2.479-.315c-2.094-.8-1.893-3.753-2.486-5.911-.675-2.429-2.744-4.3-3.324-6.75-1.369-5.747,5.949-12.617,10.724-14.61C239.674,335.339,247.111,335.838,252.234,336.468Z" transform="translate(305.567 -137.354)" opacity="0.1"/>
      <path id="Path_497" data-name="Path 497" d="M251.591,334.969c2.889.353,6.188,1.344,7.229,4.056a29.018,29.018,0,0,1,.631,3.154c1.079,4.151,5.753,6.081,8.636,9.261,2.523,2.795,3.665,6.586,4.492,10.283A96.725,96.725,0,0,1,274.244,394c-.927,7.879-2.82,15.638-3.35,23.549s.435,16.244,4.763,22.893c1.892,2.864,4.315,5.375,5.633,8.523-2.725,2.214-6.485,2.523-9.992,2.643q-6.132.208-12.263,0c-2.145-.076-4.384-.208-6.233-1.3a9.544,9.544,0,0,1-3.268-3.507c-2.34-3.968-2.927-8.737-2.832-13.342s.833-9.179.915-13.784c.044-2.523-.151-5.173-1.59-7.223a23.308,23.308,0,0,0-3.987-3.684c-5.085-4.51-6.832-11.74-7-18.534s.953-13.6.379-20.37c-.227-2.65-1.217-5.835-3.823-6.346a12.95,12.95,0,0,1-2.485-.322c-2.094-.8-1.893-3.747-2.485-5.911-.669-2.429-2.738-4.3-3.324-6.744-1.369-5.753,5.949-12.617,10.724-14.616C239.012,333.846,246.443,334.332,251.591,334.969Z" transform="translate(306.709 -136.801)" fill="#35323e"/>
    </g>
  </g>
</svg>
