<svg xmlns="http://www.w3.org/2000/svg" xmlns:xlink="http://www.w3.org/1999/xlink" width="1919.691" height="742.368" viewBox="0 0 1919.691 742.368">
  <defs>
    <linearGradient id="linear-gradient" x1="0.5" y1="0.083" x2="0.5" y2="0.383" gradientUnits="objectBoundingBox">
      <stop offset="0" stop-color="#ededed"/>
      <stop offset="1" stop-color="#fff"/>
    </linearGradient>
    <linearGradient id="linear-gradient-2" x1="0.5" y1="-0.034" x2="0.5" y2="0.501" gradientUnits="objectBoundingBox">
      <stop offset="0" stop-color="#d4d4d4"/>
      <stop offset="1" stop-color="#fff"/>
    </linearGradient>
    <linearGradient id="linear-gradient-3" y1="0.5" x2="1" y2="0.5" gradientUnits="objectBoundingBox">
      <stop offset="0" stop-color="#ffae70"/>
      <stop offset="1" stop-color="#ffd970"/>
    </linearGradient>
    <linearGradient id="linear-gradient-4" y1="0.5" x2="1" y2="0.5" gradientUnits="objectBoundingBox">
      <stop offset="0" stop-color="#ff9f55"/>
      <stop offset="1" stop-color="#ffd255"/>
    </linearGradient>
  </defs>
  <g id="_19721" data-name="19721" transform="translate(90.924 -696.549)" style="isolation: isolate">
    <g id="Слой_1" data-name="Слой 1" transform="translate(68.767 696.549)">
      <g id="Group_1" data-name="Group 1" transform="translate(-159.691)">
        <path id="Path_143" data-name="Path 143" d="M1988.458,799.051v639.866H68.767V948.074h0V820.442h62.094v65.017h79.09l31.289,30.354h31.749V758.52h73.042v40.53h61.991v78.238H491.3V779.12h65.716v41.3h34.174l29.578-28.7h33.663V696.549h94.1V837.8h96.189v34.043H882v-51.4h142.128v56.846h54.36V799.051h82.918V915.813h4.849V758.52h73.067v40.53h61.966v78.238h83.25V779.12h65.717v41.3h34.223l29.578-28.7H1547.7V696.549h94.071V837.8h96.24v34.043h37.288v-51.4h74.827v56.846h121.609V799.051Z" transform="translate(-68.767 -696.549)" fill="url(#linear-gradient)"/>
      </g>
      <g id="Group_2" data-name="Group 2" transform="translate(0 168.568)">
        <path id="Path_144" data-name="Path 144" d="M68.767,1331.721V1011.739h60.272V1070.2h69.254l21.136,21.136h229.8l35.751-35.751h72.178V995.549h63.113V1076.5H736.5l44.789-44.79H925.013v75.48h63.857l31.085-31.084H1098.6l22.262,22.26h97.359v-83.657h69.254v27.612h54.864V983.773H1392.7v88.48h141.206l13.205,13.206h121.96v246.263Z" transform="translate(-68.767 -983.773)" fill="url(#linear-gradient-2)"/>
      </g>
      <path id="Path_145" data-name="Path 145" d="M1642.941,1738.137c0,21.888-318.738,39.631-711.919,39.631S219.1,1760.025,219.1,1738.137,537.838,1698.5,931.02,1698.5,1642.941,1716.248,1642.941,1738.137Z" transform="translate(-130.871 -1110.47)" fill="url(#linear-gradient-3)"/>
      <path id="Path_146" data-name="Path 146" d="M2102.163,1204.767l-37.257,20.479-37.413-58.876,45.251-15.719Z" transform="translate(-877.942 -884.144)" fill="#292c47"/>
      <path id="Path_147" data-name="Path 147" d="M2101.544,1204.222l-34.841,19.151-34.989-55.06,42.318-14.7Z" transform="translate(-879.686 -885.368)" fill="#e2d2ca"/>
      <path id="Path_148" data-name="Path 148" d="M2141.344,1213.688s-6.485-3.1-9.332-4.723-10.168-3.846-10.759-4.375-21.7-1.831-22.984-2.934-2.524,2.589,2.947,3.788,13.087,4.129,13.5,6.268-5.621,2.645-6.231,4.406.172,1.367,1.037,1.745,7.18-3.12,9.957-2.128,7.021-.381,9.15.347,12.479,4.211,12.479,4.211Z" transform="translate(-906.726 -905.131)" fill="#eea886"/>
      <path id="Path_149" data-name="Path 149" d="M2068.067,1238.887s-5.448-4.9-8.084-6.955-7.583-8.084-8.312-8.435-10.177-19.739-11.716-20.517,1.457-3.387,4.717,1.3,8.988,10.725,11.165,10.285.3-6.327,1.725-7.589,1.355-.37,2.048.3-.144,7.982,1.873,10.212,2.375,6.767,3.89,8.488,8.827,10.119,8.827,10.119Z" transform="translate(-882.919 -905.173)" fill="#eea886"/>
      <path id="Path_150" data-name="Path 150" d="M2288.052,1710.956s1.178,8.179,1.325,9.408,13.109-.724,13.109-.724l1.049-9.738S2289.672,1709.8,2288.052,1710.956Z" transform="translate(-985.582 -1115.177)" fill="#424773"/>
      <path id="Path_151" data-name="Path 151" d="M2274.244,1725.564s-4.108,4.93-8.079,7.077-10.212,3-12.559,5.223c-1.7,1.6-6.175,8.516,10.321,8.377s24.45.976,26.218-1.674-2.558-19.557-2.558-19.557S2283.678,1726.417,2274.244,1725.564Z" transform="translate(-970.587 -1121.42)" fill="#292c47"/>
      <path id="Path_152" data-name="Path 152" d="M2129.808,1710.956s1.178,8.179,1.325,9.408,13.108-.724,13.108-.724l1.05-9.738S2131.428,1709.8,2129.808,1710.956Z" transform="translate(-920.21 -1115.177)" fill="#424773"/>
      <path id="Path_153" data-name="Path 153" d="M2110.635,1725.564s-4.108,4.93-8.078,7.077-18.589,3.913-20.937,6.136c-1.7,1.6-4.516,8.067,18.7,7.463,16.492-.43,24.45.976,26.218-1.674s-2.557-19.557-2.557-19.557S2120.295,1726.511,2110.635,1725.564Z" transform="translate(-899.849 -1121.42)" fill="#292c47"/>
      <path id="Path_154" data-name="Path 154" d="M2248.83,1353.581s12.179,19.35,11.268,36.841,4.416,36.587,6.245,54.859c2.039,20.37,10.388,68.592,10.689,79.489s-1.3,45.689-1.3,45.689l-16.708.382s-14.034-84.305-17.665-92.907-21.656-69.929-22.263-76.811S2248.83,1353.581,2248.83,1353.581Z" transform="translate(-957.094 -967.977)" fill="#292c47"/>
      <path id="Path_155" data-name="Path 155" d="M2146.246,1353.856s-9.178,47.94-10.388,58.645-2.019,51.806-2.624,58.5-4.039,87.555-7.269,97.5h21.363s16.4-58.786,16.4-86.6,12.668-60.466,20.846-78.819,26.895-18.786,31.921-52.833C2216.487,1350.244,2153.051,1343.057,2146.246,1353.856Z" transform="translate(-918.622 -965.631)" fill="#292c47"/>
      <path id="Path_156" data-name="Path 156" d="M2214.639,1075.331s-16.347-6.1-23.886,6.339-6.812,37.355,1.428,40.419,20.618,1.462,24.837-6.325,8.027-19.043,7.844-26.565S2218.931,1077.5,2214.639,1075.331Z" transform="translate(-943.226 -852.41)" fill="#eea886"/>
      <path id="Path_157" data-name="Path 157" d="M2199.558,1146.1s.68,4.413-.444,6.588,21.178,2.23,21.178,2.23a146.933,146.933,0,0,1,5.243-21.818C2228.967,1123.113,2199.558,1146.1,2199.558,1146.1Z" transform="translate(-948.824 -875.856)" fill="#eea886"/>
      <path id="Path_158" data-name="Path 158" d="M2220.431,1108.333s-1.539,2.539-7.823,1.553-13.948-9.344-16.572-10.262-2.649-2.459-2.649-2.459l-1.644,2.4-2.786.176s2.541-7.478-1.291-10.528,3.98-24.2,24.131-17.162c0,0,15.477,4.266,14.914,13.068S2223.9,1103.948,2220.431,1108.333Z" transform="translate(-943.722 -851.084)" fill="#3a3f47"/>
      <path id="Path_159" data-name="Path 159" d="M2196.883,1163.5s.071-4.154,1.953-4.552,20.784-2.216,23.1-1.307v4.839S2217.479,1165.22,2196.883,1163.5Z" transform="translate(-947.919 -886.927)" fill="#e2d2ca"/>
      <path id="Path_160" data-name="Path 160" d="M2198.44,1108.135c.352-1.476,4.108-5.693,5.544-1.178s-2.171,10.594-4.185,10.074S2197.547,1111.878,2198.44,1108.135Z" transform="translate(-948.358 -865.255)" fill="#eea886"/>
      <path id="Path_161" data-name="Path 161" d="M2069.013,1251.432a.054.054,0,0,1,.031,0C2068.915,1251.486,2068.9,1251.492,2069.013,1251.432Z" transform="translate(-895.062 -925.777)" fill="#323657"/>
      <path id="Path_162" data-name="Path 162" d="M2200.616,1322.215s-10.025,2.952-27.121,4.836-59.81-.681-60.079-2.7,9.188-75.205,8.65-78.976-.827-17.2-.827-17.2c-.211,3.679-3.96,18.709-8.485,26.9-1.635,2.96-7.12,12.239-9.764,10.129-12.8-10.218-32.612-48.718-33.868-49.043,1.056-.459,9.39-4.3,10.56-4.687,1.024-.342,10.256,9.433,15.85,15.494,2.494,2.7,4.265,4.663,4.265,4.663,1.615-3.634,7.5-26.527,9.326-34.45,4.124-17.869,3.49-18.612,3.49-18.612,12.506-3.783,31.491-11.484,31.491-11.484l25.048-1.021s22.989,5.061,32.044,9.15c.859.388.863,20.51,3.22,25.786l-7.506,15.836s-4.336,31.369-5.235,45.321C2191.26,1268.565,2200.616,1322.215,2200.616,1322.215Z" transform="translate(-895.14 -890.516)" fill="#323657"/>
      <path id="Path_163" data-name="Path 163" d="M2281.791,1233.562c-.654,2.113-3.624,3.895-5.553,4.675a7.177,7.177,0,0,1-4.01.4l-.981-.181h0l-17.167-3.183s-3.756-43.257,23.451-53.621C2278.251,1181.891,2287.8,1214.195,2281.791,1233.562Z" transform="translate(-971.476 -896.952)" fill="#323657"/>
      <path id="Path_164" data-name="Path 164" d="M2288.445,1262.662h0a7.178,7.178,0,0,1-4.01.4l-.981-.181h0l1.693-22.1Z" transform="translate(-983.683 -921.378)" fill="#252840"/>
      <path id="Path_165" data-name="Path 165" d="M2118.385,1274.5l-2.1,8.885s-2.277-8.916-2.167-13.548C2116.614,1272.541,2118.385,1274.5,2118.385,1274.5Z" transform="translate(-913.727 -933.383)" fill="#252840"/>
      <path id="Path_166" data-name="Path 166" d="M2243.067,1078.861s21.426-2.472.366,33.313Z" transform="translate(-966.998 -854.472)" fill="#3a3f47"/>
      <path id="Path_167" data-name="Path 167" d="M2055.307,1165.252l-2.177-3.741,17.153-5.918,2.177,3.721Z" transform="translate(-888.533 -886.186)" fill="#292c47"/>
      <rect id="Rectangle_4" data-name="Rectangle 4" width="205.302" height="476.541" rx="35.986" transform="translate(854.827 626.219) rotate(180)" fill="#587aa3"/>
      <path id="Path_168" data-name="Path 168" d="M23.147,0H219.422A23.147,23.147,0,0,1,242.57,23.147v438.17a23.147,23.147,0,0,1-23.147,23.147H23.147A23.147,23.147,0,0,1,0,461.318V23.147A23.147,23.147,0,0,1,23.147,0Z" transform="translate(883.861 629.878) rotate(180)" fill="url(#linear-gradient-4)"/>
      <path id="Path_169" data-name="Path 169" d="M1393.911,1228.32l8.88,13.994,8.2,12.916c-.019-.069-.565-2.025-1.491-7.688-.176-1.075-.366-2.284-.568-3.639a9.577,9.577,0,0,0-.258-1.191h0c-3.508-8.087-14.352-14.183-14.749-14.386l-.01-.006Z" transform="translate(-616.201 -916.23)" fill="#eddad3"/>
      <path id="Path_170" data-name="Path 170" d="M1408.644,1242.62h0s.474.981.862,4.925l-3.211-4.846s-5.734-8.222-7.7-10.36a32.645,32.645,0,0,0-4.664-4.01S1405.213,1233.75,1408.644,1242.62Z" transform="translate(-616.21 -916.234)" fill="#ffca55"/>
      <path id="Path_171" data-name="Path 171" d="M1395.8,972.711v434.3a21.112,21.112,0,0,1-21.119,21.111H1211.622a21.119,21.119,0,0,1-21.12-21.113v-434.3a21.121,21.121,0,0,1,21.12-21.121h163.061A21.114,21.114,0,0,1,1395.8,972.711Z" transform="translate(-532.17 -801.91)" fill="#6bb0ff" opacity="0.73" style="mix-blend-mode: screen;isolation: isolate"/>
      <path id="Path_172" data-name="Path 172" d="M1304.017,1685.644s3.4,9.4,9.091,13.377,11.574,9.671,10.023,13.651-20.569,1.872-28.523-9.684c-5.025-7.3-10.131-8.929-10.118-12.387s5.845-10.37,6.15-11.349C1291.018,1678.042,1304.017,1685.644,1304.017,1685.644Z" transform="translate(-570.998 -1102.463)" fill="#353a3d"/>
      <path id="Path_173" data-name="Path 173" d="M1309.694,1679.412a34.3,34.3,0,0,1-1.408,3.4c-.151.02-14.683-3.874-13.376-6.392a23.116,23.116,0,0,1,3.032-4.149Z" transform="translate(-575.268 -1099.634)" fill="#81807e"/>
      <path id="Path_174" data-name="Path 174" d="M1257.3,1407.9s4.2-9.974,7.459-10.6.581,1.972.581,1.972-4.135,6.854-5.53,9.73A16.243,16.243,0,0,1,1257.3,1407.9Z" transform="translate(-559.765 -985.998)" fill="#434343"/>
      <path id="Path_175" data-name="Path 175" d="M1280.612,1377.162a79.545,79.545,0,0,0-1.042,9.725c-.176,4.892.6,6.746-.849,9.072-1.093,1.754-3.756,2.42-4.082,1.617s2.033-8.3-1.046-9.351-2.331,9.492-3.919,8.174-7.251-7.658-5.487-11.232,5.531-5.274,7.325-10.91c1.628-5.115,3.952-6.668,3.952-6.668Z" transform="translate(-562.472 -973.764)" fill="#eea886"/>
      <path id="Path_176" data-name="Path 176" d="M1277.091,1402.221s3.714,2.491-1.424,16.219l-4.351-2.411s2.79-7.605,2.884-12.255C1274.2,1403.776,1275.394,1401.157,1277.091,1402.221Z" transform="translate(-565.556 -987.966)" fill="#545554"/>
      <path id="Path_177" data-name="Path 177" d="M1265.4,1427.1l-32.391-22.98L1217.4,1448.5l28.226,34.18Z" transform="translate(-543.281 -988.854)" fill="#545554"/>
      <path id="Path_178" data-name="Path 178" d="M1456.376,1480.2v87.138c-8.921-27.067-28.405-85.591-33.1-95.169-4.085-8.38-41.153-56.74-43.876-53.289s-17.911,43.993-19.929,53.97c-2,9.977-47.444,84.042-47.444,84.042s-.8-.165-2.02-.493c-3.169-.939-9.225-3.122-12.3-7.183a9.6,9.6,0,0,1-.939-1.455s33.382-72.469,36.527-86.178c1.1-4.789,2.348-28.194,6.737-52.609a203.624,203.624,0,0,1,8.1-31.88c1.385-3.827,5.423-5.423,10.822-5.587.916-.047,1.878-.023,2.865.024,1.643.094,3.38.282,5.188.54a105.963,105.963,0,0,1,12.912,2.911c3.709,1.08,7.418,2.277,10.869,3.5,4.014,1.433,7.723,2.888,10.8,4.132,1.01.4,1.949.8,2.817,1.15.962.4,1.808.776,2.535,1.08,1.925.846,3.052,1.362,3.052,1.362s5.845,10.4,13.1,23.616c9.977,18.17,22.63,41.6,26.5,50.613a170.142,170.142,0,0,1,6.786,19.769Z" transform="translate(-576.07 -975.371)" fill="#353a3d"/>
      <path id="Path_179" data-name="Path 179" d="M1432.752,1247.9l13.71,15.329v25.378c-9.813-9.32-21.363-21.222-25.659-25a7.7,7.7,0,0,0-1.549-1.174c-.61-.235-1.714-1.761-3.052-4.061-.375-.634-.8-1.362-1.221-2.113-.634-1.15-1.291-2.395-1.972-3.709-.446-.868-.915-1.761-1.385-2.675s-.916-1.855-1.385-2.77c-.916-1.854-1.831-3.71-2.652-5.446-.635-1.315-1.221-2.56-1.761-3.686-.352-.775-.7-1.478-1.009-2.136s-.587-1.245-.822-1.784c-.587-1.268-.962-2.09-1.056-2.278a62.018,62.018,0,0,1-.117,10.869,52.828,52.828,0,0,1-1.408,8.17,63.21,63.21,0,0,0-1.455,12.653v.141c0,.117-.024.211-.024.329v.141c-.235,8.638.352,17.959.611,22.912.375,7.794-2.23,11.245-2.23,11.245s-.352-.047-.986-.141l-1.691-.235-1.925-.258-2.606-.376-10.118-1.409-3.686-.516-.845-.117-6.409-.916-12.934-1.807-5.165-.728-2.794-.4-6.808-.962-3.052-.447h-.047s-2.63-18.569-2.817-28.593c-.188-9.367-5.282-28.546-5.963-31.058a.717.717,0,0,1-.047-.187v-.023c0-.024,0-.024-.024-.024v-.047s-14.766,15.517-17.63,22.278c-.7,1.666-2.582,5.634-5.094,10.7-.047.117-.094.235-.141.329-6.808,13.78-17.982,35.308-22.3,40.354-.516.657-.963,1.033-1.268,1.08a2.319,2.319,0,0,1-.422.047c-2.7.023-7.23-3.733-9.461-5.751-.822-.727-1.314-1.22-1.314-1.22s.187-.446.563-1.244c3.146-7.207,19.085-43.453,23.1-51.974.376-.8.657-1.362.8-1.62a3.586,3.586,0,0,0,.235-.446c3-5.8,23.429-50.191,26.551-52.42a17.22,17.22,0,0,1,1.643-.963,6.2,6.2,0,0,0,.8-.4.394.394,0,0,0,.117-.047c.517-.235,1.057-.492,1.667-.774.188-.094.4-.188.61-.282.423-.188.846-.375,1.291-.587,2.465-1.079,5.376-2.3,8.193-3.45.8-.329,1.573-.634,2.3-.916,1.1-.447,2.183-.845,3.169-1.221.141-.047.258-.094.376-.141a47.728,47.728,0,0,1,6.338-2.16h.423c.211,0,.493.023.822.047,4.085.235,16.268,1.361,20.189,1.736.8.071,1.243.117,1.243.117s1.878.869,4.7,2.136l.023.024.235.094c1.643.751,3.568,1.643,5.61,2.582,4.273,1.972,9.109,4.226,12.935,6.033,3.663,1.761,9.2,4.742,9.625,5.071Z" transform="translate(-566.156 -895.926)" fill="#decbc4"/>
      <path id="Path_180" data-name="Path 180" d="M1444.386,1376.2s1.361,1.627,1.754,8.519c0,0-55.938-6.526-61.851-9.1,0,0-.232-7.595,1.023-7.727C1386.695,1367.75,1444.386,1376.2,1444.386,1376.2Z" transform="translate(-612.219 -973.89)" fill="#495055"/>
      <path id="Path_181" data-name="Path 181" d="M1405.423,1161.81c.176,8.779,17.172,13.582,17.172,13.582s7.11-8.914,5.412-9.768c-.667-.335-.939-1.666-1.021-3.158a30.905,30.905,0,0,1,.1-3.981c.051-.621.1-1.021.1-1.021s-2.429-2.562-5.517-5.615c-5.4-5.341-12.821-12.177-12.833-9.456a2.43,2.43,0,0,0,.063.516C1410.2,1149.032,1405.423,1161.81,1405.423,1161.81Z" transform="translate(-620.957 -880.478)" fill="#eea886"/>
      <path id="Path_182" data-name="Path 182" d="M1405.069,1369.963s-1.221,7.7-1.326,9.707l-2.588-.516s.713-8.146,1.132-9.511Z" transform="translate(-619.194 -974.613)" fill="#5d676c"/>
      <path id="Path_183" data-name="Path 183" d="M1476.916,1380.259s.981,7,1,9.641l-2.737-.356s-.561-8.739-.874-9.651Z" transform="translate(-649.415 -978.847)" fill="#353a3d"/>
      <path id="Path_184" data-name="Path 184" d="M1416.577,1154h0c.034.052.755,1.13,1.985,2.678,2.609,3.282,7.515,8.674,13.029,10.84a30.93,30.93,0,0,1,.1-3.981,8.855,8.855,0,0,0,1.688-.2,52.248,52.248,0,0,0-3.7-5.411l-3.412-1.021Z" transform="translate(-625.565 -885.528)" fill="#a77860"/>
      <path id="Path_185" data-name="Path 185" d="M1406.943,1122.261c1.471,3.2,2.866,5.517,3.262,6.436h0a11.358,11.358,0,0,0,1.985,2.678c2.8,3.018,8.008,7,13.126,6.859a8.875,8.875,0,0,0,1.688-.2,8.031,8.031,0,0,0,5.851-4.04c10.6-20.762,2.926-37.74,2.926-37.74s-29-8.2-33.531.528C1399.068,1102.9,1403.488,1114.746,1406.943,1122.261Z" transform="translate(-619.194 -860.228)" fill="#eea886"/>
      <path id="Path_186" data-name="Path 186" d="M1432.726,1086.1s2.693-.149,3.359-5.254c.658-5.047-.673-6.443-.673-6.443s-11.973-5.01-16.268-5.662-14.869-1.278-17.347,1.556c0,0-6.02-1.4-7.66,8.595-2.6,15.854,8.867,31.248,8.867,31.248s-.1-10.358,2.186-11.729,4.256,1.891,4.256,1.891l4.672.837s-7.1-15.323,1.416-15.891S1427.853,1086.99,1432.726,1086.1Z" transform="translate(-616.136 -850.078)" fill="#e2d2ca"/>
      <path id="Path_187" data-name="Path 187" d="M1414.522,1112.8c-.445-4.563-8.7-6.3-8.144-1.522s4.616,9.378,6.493,9.214S1414.861,1116.275,1414.522,1112.8Z" transform="translate(-621.341 -866.701)" fill="#eea886"/>
      <path id="Path_188" data-name="Path 188" d="M1312.779,1253.781c-3.24,6.595-23.471,50.688-27.02,51.342s-13-7.516-13-7.516,22.576-49.768,24.473-53.113,23.559-50.57,26.774-52.875c1.858-1.333,9.878-4.754,16.632-7.413,1.232-.488,2.43-.952,3.536-1.372,1.433,1.595,24.466,27.625,22.3,50.7-.65,6.933-1.522,18.239-3.44,30.144-1.986,12.369-5.192,26.351-7.263,36.907-3.747,19.088-12.014,37.281-12.014,37.281l-21.57-10.8a7.505,7.505,0,0,1-3.711-9.238c4.851-13.586,14.541-41.034,14.547-52.955,0,0-.766-26.919-2.621-33.335C1330.408,1231.544,1316.493,1246.218,1312.779,1253.781Z" transform="translate(-566.153 -897.44)" fill="#3c4145"/>
      <path id="Path_189" data-name="Path 189" d="M1520.541,1265.639V1292.4c-9.6-9.367-21.339-21.926-25.659-25.87a7.71,7.71,0,0,0-1.549-1.174c-.61-.235-1.714-1.761-3.052-4.061-.4-.634-.8-1.362-1.221-2.113-.634-1.15-1.291-2.394-1.972-3.709-.446-.868-.916-1.761-1.385-2.676s-.916-1.855-1.385-2.77c-.916-1.855-1.831-3.71-2.652-5.446-.635-1.315-1.245-2.559-1.761-3.686-.352-.775-.7-1.478-1.009-2.136s-.587-1.245-.822-1.784c-.587-1.268-.962-2.09-1.056-2.278a26.519,26.519,0,0,1-.117,10.869c-1.15,6.55-3.427,13.451-2.863,20.823v.141c1.783,22.372,11.2,54.041,13.991,63.007a3.971,3.971,0,0,1-.775,3.756,2.187,2.187,0,0,1-.376.445l-6.714,6.2s-5.822-17.936-8.827-30.589c-.07-.352-.164-.7-.235-1.033a68.349,68.349,0,0,1-1.386-7.536v-.023c-.54-5.024-1.62-10.893-2.794-17.137-1.15-6.244-2.348-12.888-3.075-19.438-1.878-16.62-3.8-33.1-5.188-42.772-.446-3.145-.892-6.056-1.314-8.733-2.982-18.756-5.259-26.316-5.259-26.316l.141-.117c1.643.751,3.568,1.643,5.61,2.582,4.273,1.972,9.109,4.226,12.935,6.033,3.663,1.761,9.2,4.742,9.625,5.071l26.433,50.894Z" transform="translate(-640.234 -898.849)" fill="#3c4145"/>
      <path id="Path_190" data-name="Path 190" d="M1396.677,1204.622l8.269,4.663-3.532,3.6,9.407,50.792c1.918-11.905,2.791-23.211,3.44-30.144,2.163-23.077-20.87-49.108-22.3-50.7-1.106.42-2.3.884-3.536,1.372Z" transform="translate(-613.934 -897.44)" fill="#51565c"/>
      <path id="Path_191" data-name="Path 191" d="M1451.886,1186.056s3.089,10.091,6.69,35.278c1.38,9.675,3.318,26.144,5.179,42.766l1.926-47.568-3.94-4.268,3.5-4.377-7.494-19.132c-2.047-.946-3.973-1.831-5.6-2.579Z" transform="translate(-640.151 -898.771)" fill="#51565c"/>
      <path id="Path_192" data-name="Path 192" d="M1357.868,1185.171c-6.754,2.662-16.81,6.124-18.667,7.458-3.216,2.3-22.843,49.484-24.74,52.83Z" transform="translate(-583.38 -898.405)" fill="#3c4145"/>
      <path id="Path_193" data-name="Path 193" d="M1242.978,1482.082l-4.807-.765L1211,1447.284l16.3-44.628,3.065.856Z" transform="translate(-540.637 -988.251)" fill="#545554"/>
      <path id="Path_194" data-name="Path 194" d="M1393.74,1180.076l6.857-4.167s.192,3.76,17.172,13.582l-4.822,13.581Z" transform="translate(-616.13 -894.579)" fill="#f5e2d9"/>
      <path id="Path_195" data-name="Path 195" d="M1439.2,1179.142s-.267,4.058-4.519,11.687l9.411,12.266.686-19.9Z" transform="translate(-633.043 -895.914)" fill="#f5e2d9"/>
      <path id="Path_196" data-name="Path 196" d="M1433.716,1199.055s-1.824,7.3-1.167,9.338c0,0,4.01,1.458,6.893-.365a32.052,32.052,0,0,0-5.726-8.973Z" transform="translate(-632.104 -904.141)" fill="#464157"/>
      <path id="Path_197" data-name="Path 197" d="M1450.09,1363.389c1.021-5.147.049-20.572.008-21.225l-.874.059c.01.158,1.006,15.963.007,21Z" transform="translate(-639.052 -963.261)" fill="#ad9f99"/>
      <path id="Path_198" data-name="Path 198" d="M1438.407,1374.286s8.231.983,10.953,1.661l-.357,9.225-10.778-1.15Z" transform="translate(-634.508 -976.531)" fill="#69737a"/>
      <path id="Path_199" data-name="Path 199" d="M1437.289,1212.508a185.579,185.579,0,0,1,9.125,48.77c1.021,25.973-1.724,32.684-1.724,32.684l-10.139,9.124-3.394-11.861s9.156-28.853,4.251-62.229c-.889-6.048-2.208-17.509-2.208-17.509Z" transform="translate(-631.588 -909.277)" fill="#464157"/>
      <path id="Path_200" data-name="Path 200" d="M1211.615,951.567h179.728a21.128,21.128,0,0,1,21.128,21.128v434.3a21.128,21.128,0,0,1-21.128,21.128H1211.615a21.128,21.128,0,0,1-21.128-21.128V972.7A21.128,21.128,0,0,1,1211.615,951.567Z" transform="translate(-532.164 -801.9)" fill="#a3cdff" opacity="0.98" style="mix-blend-mode: screen;isolation: isolate"/>
      <path id="Path_201" data-name="Path 201" d="M1593.683,1362.169s3.3,4.8,5.027,4.965,4.157,1.7,5.669,2.141,6.1.184,7.445,1.192c.549.411,2.876,4.273,4.087,4.989s3.843,1.869,3.169,2.9-3.335.639-3.335.639a1.752,1.752,0,0,1,.744,1.8c-.614,2.1-1.967,2.366-1.967,2.366s.587,1.439.108,2.253a3.849,3.849,0,0,1-2.367,2.015,3.54,3.54,0,0,1-.967,2.213,3.228,3.228,0,0,1-2.977.892s-1.171,2.014-2.457,1.819-2.1-1.014-3.052-1.433-7.888-6.639-10.847-12.925a29.7,29.7,0,0,0-7.72-9.96Z" transform="translate(-694.829 -971.525)" fill="#eea886"/>
      <path id="Path_202" data-name="Path 202" d="M1625.154,1386.157s-6.033-5.215-8.73-4.747-.628,2.471-.628,2.471-2.012-2.015-3.822-.571.74,3.661.74,3.661a2.3,2.3,0,0,0-3.184.945c-1.241,2.06,1.3,3.415,1.3,3.415s-3.639-.048-2.582,2.725c1.781,4.682,7.292,6.338,7.292,6.338a2.794,2.794,0,0,0,2.681-1.837s3.425.86,3.969-3.075c0,0,3.9-1.408,2.351-4.315C1624.542,1391.167,1628.47,1389.3,1625.154,1386.157Z" transform="translate(-704.669 -979.462)" fill="#db9c7c"/>
      <path id="Path_203" data-name="Path 203" d="M1594.49,1731.376s8.216,6.6,15.528,7.067,15.731,2.365,16.517,6.8-22.209,10.071-31.009,6.918c-13.134-4.707-14.027-2.489-15.91-5.613s-.421-12.548-.683-13.6C1578.608,1731.656,1594.49,1731.376,1594.49,1731.376Z" transform="translate(-692.513 -1124.049)" fill="#353a3d"/>
      <path id="Path_204" data-name="Path 204" d="M1593.306,1725.279a32.633,32.633,0,0,1,1.391,3.58c-.123.1-15.552,4.567-15.558,1.576,0-2.426.124-5.083.124-5.083Z" transform="translate(-692.722 -1121.531)" fill="#81807e"/>
      <path id="Path_205" data-name="Path 205" d="M1530.656,1579.628c.187.915-.846,1.5-2.489,1.854-3.944.893-11.479.54-14.837.329-1.033-.07-1.667-.117-1.667-.117s-31.457-96.344-37.608-108.879c-4.085-8.38-41.152-56.74-43.876-53.29,0,0-6.549-15-9.554-37.842-.376-2.77-.681-5.658-.939-8.639a109.109,109.109,0,0,1,11.01,2.582c3.709,1.08,7.418,2.277,10.869,3.5,4.014,1.433,7.723,2.888,10.8,4.132,1.01.4,1.949.8,2.817,1.15.962.4,1.807.776,2.535,1.081,1.925.846,3.052,1.362,3.052,1.362s5.845,10.4,13.1,23.616c9.977,18.17,22.63,41.6,26.5,50.613,6.221,14.438,12.606,40.378,13.452,50.519C1514.9,1524.367,1529.9,1575.9,1530.656,1579.628Z" transform="translate(-626.849 -976.018)" fill="#353a3d"/>
      <path id="Path_206" data-name="Path 206" d="M1531.309,1291.325s-.282.329-.751.893c-1.62,1.9-5.54,6.409-8.028,8.78a2.032,2.032,0,0,0-.235.211c-.282.258-.844.141-1.667-.282-7.113-3.686-32.631-30.635-39.533-36.692-.47-.4-.869-.728-1.15-.939a.382.382,0,0,0-.164-.094.88.88,0,0,0-.235-.141c-.61-.235-1.714-1.761-3.052-4.061-.376-.634-.8-1.362-1.221-2.113-.305-.587-.634-1.174-.962-1.784-.329-.634-.657-1.268-1.01-1.925-.446-.868-.916-1.761-1.385-2.676-1.619-3.193-3.263-6.55-4.672-9.508-.328-.728-.68-1.431-.986-2.113-.54-1.127-1.009-2.137-1.432-3.028-.188-.4-.352-.775-.516-1.127-.117-.282-.235-.516-.352-.752a5.037,5.037,0,0,0-.282-.61c-.211-.469-.352-.8-.422-.939a.023.023,0,0,0-.024-.024,62.006,62.006,0,0,1-.117,10.869v.024a52.5,52.5,0,0,1-1.409,8.146,63.259,63.259,0,0,0-1.455,12.653v.141c0,.117-.024.211-.024.329v.141c-.235,8.638.352,17.959.611,22.911.375,7.794-2.23,11.245-2.23,11.245s-.352-.047-.986-.141c-.423-.07-1.01-.141-1.691-.235l-1.924-.258-2.606-.375-10.118-1.409-3.686-.516-.845-.117-6.409-.916-11.08-1.549v-.165c-.188-2.254-.329-4.578-.422-6.949v-.024c-.14-3.474-.164-7.066-.07-10.752a250.945,250.945,0,0,1,2.16-25.635c1.5-11.315,3.263-21.738,3.874-33.335a154.807,154.807,0,0,0,.023-15.846v-.024c-.187-3.38-.47-6.925-.916-10.634-.046-.375-.093-.751-.164-1.127-.329-2.629-.728-5.352-1.221-8.169,3.944.352,7.817.7,9.72.891h.022c.775.071,1.221.117,1.221.117s1.878.869,4.7,2.136l.024.024.235.094c1.643.751,3.568,1.643,5.61,2.582,4.273,1.972,9.109,4.225,12.935,6.033,3.663,1.76,9.2,4.742,9.625,5.071l26.433,50.894,37.349,41.763Z" transform="translate(-626.447 -896.552)" fill="#decbc4"/>
      <path id="Path_207" data-name="Path 207" d="M1460.753,1386.567s-1.033-.117-2.817-.329c-.751-.094-1.643-.211-2.653-.329-.822-.094-1.761-.211-2.746-.329-3.146-.4-7-.869-11.2-1.409-3.452-.422-7.113-.891-10.8-1.409-3.357-.446-6.713-.892-9.93-1.362-.376-2.77-.681-5.658-.939-8.639a.78.78,0,0,0-.024-.235v-.165c3.568.516,7.348,1.033,11.08,1.573,2.183.329,4.343.634,6.433.939.281.047.563.07.845.117,1.244.188,2.488.352,3.662.54,3.8.541,7.3,1.056,10.118,1.455.939.141,1.807.259,2.606.376.728.117,1.362.211,1.925.282v.023c.681.094,1.268.166,1.691.235.634.094.986.141.986.141S1460.353,1379.665,1460.753,1386.567Z" transform="translate(-626.833 -975.737)" fill="#495055"/>
      <path id="Path_208" data-name="Path 208" d="M1428.408,1177.283h-.024l-.023-.023a37.364,37.364,0,0,1-4.132-1.456c-.046-.375-.094-.751-.164-1.127-.329-2.629-.728-5.352-1.221-8.169-.376-2.183-.8-4.413-1.291-6.714-.376-1.808-.727-3.568-.986-5.282v-.024c-.305-.328-.563-.657-.8-.962.235.258.493.516.751.775q-.246-1.408-.423-2.747v-.023c-.258-1.784-.445-3.5-.61-5.165,2.441,2.019,5.447,4.86,7.982,7.372,3.1,3.052,5.517,5.634,5.517,5.634s-.047.4-.094,1.01a34.746,34.746,0,0,0-.094,3.991,9.6,9.6,0,0,0,.117,1.221c.141.939.422,1.69.892,1.924C1435.52,1168.386,1428.408,1177.283,1428.408,1177.283Z" transform="translate(-626.767 -882.374)" fill="#eea886"/>
      <path id="Path_209" data-name="Path 209" d="M1476.916,1380.259s.981,7,1,9.641l-2.737-.356s-.561-8.739-.874-9.651Z" transform="translate(-649.415 -978.847)" fill="#353a3d"/>
      <path id="Path_210" data-name="Path 210" d="M1433.09,1164.032a34.718,34.718,0,0,0-.094,3.991c-5-1.971-9.484-6.573-12.231-9.86v-.024c-.305-.328-.563-.657-.8-.962.235.258.493.516.751.775q-.246-1.408-.423-2.747l7.372,2.184,3.427,1.033a51.977,51.977,0,0,1,3.685,5.4A8.353,8.353,0,0,1,1433.09,1164.032Z" transform="translate(-626.965 -886.026)" fill="#a77860"/>
      <path id="Path_211" data-name="Path 211" d="M1440.152,1134.022a8,8,0,0,1-5.846,4.038,8.365,8.365,0,0,1-1.69.211c-4.695.117-9.461-3.216-12.371-6.08q-.247-1.409-.423-2.747v-.023c-.258-1.784-.445-3.5-.61-5.165a83.949,83.949,0,0,1-.352-10.634c.023-1.409.094-2.77.211-4.061.094-1.385.235-2.723.446-3.991a52.091,52.091,0,0,1,3.334-12.724,104.191,104.191,0,0,1,20.235,3.451S1450.763,1113.27,1440.152,1134.022Z" transform="translate(-626.492 -860.265)" fill="#eea886"/>
      <path id="Path_212" data-name="Path 212" d="M1446.619,1081.7c-.657,5.094-3.356,5.259-3.356,5.259-4.883.868-8.686-1.433-17.208-.869-8.5.563-1.408,15.893-1.408,15.893l-4.672-.822-.023-.024a5.151,5.151,0,0,0-.7-.916c.094-1.385.235-2.723.446-3.991a52.093,52.093,0,0,1,3.334-12.724c3.778-9.249,8.944-12.958,9.366-13.264h.024c5.258,1.549,13.521,5,13.521,5S1447.277,1076.655,1446.619,1081.7Z" transform="translate(-626.668 -850.928)" fill="#e2d2ca"/>
      <path id="Path_213" data-name="Path 213" d="M1419.8,1119.432a5.5,5.5,0,0,1-.916,3.146c.023-1.409.094-2.77.211-4.061.094-1.385.235-2.723.446-3.991a3.015,3.015,0,0,1,.165.8A24.28,24.28,0,0,1,1419.8,1119.432Z" transform="translate(-626.519 -869.221)" fill="#eea886"/>
      <path id="Path_214" data-name="Path 214" d="M1426.773,1257.836c-.657,6.949-1.526,18.24-3.427,30.166-1.221,7.583-2.911,15.752-4.507,23.405-.14-3.474-.164-7.066-.07-10.752a250.946,250.946,0,0,1,2.16-25.635c1.5-11.315,3.263-21.738,3.873-33.335A42.41,42.41,0,0,1,1426.773,1257.836Z" transform="translate(-626.446 -921.752)" fill="#3c4145"/>
      <path id="Path_215" data-name="Path 215" d="M1474.375,1266.7c-.9-11.6,4.948-22.368,2.646-32.044l.01.021c.492,1.073,13.526,29.659,16.3,30.677,2.832,1.042,38.139,40.615,41.1,37.854,3.16-2.952,10.384-11.36,10.384-11.36l-37.993-41.015-26.424-50.894c-.427-.338-5.966-3.318-9.632-5.063-3.815-1.819-8.647-4.059-12.932-6.038-2.047-.946-3.973-1.831-5.6-2.579l-.133.106s2.962,9.867,6.563,35.054c1.38,9.675,3.318,26.144,5.179,42.766v.007c1.467,13.1,4.821,26.548,5.887,36.583,1.1,10.388,10.447,39.168,10.447,39.168l6.717-6.2a4.073,4.073,0,0,0,1.127-4.2C1485.239,1320.559,1476.1,1289.051,1474.375,1266.7Z" transform="translate(-640.241 -898.855)" fill="#3c4145"/>
      <path id="Path_216" data-name="Path 216" d="M1428.332,1257.836c-.657,6.949-1.526,18.24-3.427,30.166l-2.418-12.982c1.5-11.315,3.263-21.738,3.873-33.335A42.413,42.413,0,0,1,1428.332,1257.836Z" transform="translate(-628.006 -921.752)" fill="#51565c"/>
      <path id="Path_217" data-name="Path 217" d="M1451.886,1186.056s3.089,10.091,6.69,35.278c1.38,9.675,3.318,26.144,5.179,42.766l1.926-47.568-3.94-4.268,3.5-4.377-7.494-19.132c-2.047-.946-3.973-1.831-5.6-2.579Z" transform="translate(-640.151 -898.771)" fill="#51565c"/>
      <path id="Path_218" data-name="Path 218" d="M1431.631,1197.21v.023l-.072.141v.07l-3.193,8.921c-.187-3.38-.469-6.925-.916-10.634-.046-.376-.093-.751-.164-1.127,1.291.822,2.723,1.667,4.3,2.582l.023.023Z" transform="translate(-629.989 -902.302)" fill="#f5e2d9"/>
      <path id="Path_219" data-name="Path 219" d="M1439.2,1179.142s-.267,4.058-4.519,11.687l9.411,12.266.686-19.9Z" transform="translate(-633.043 -895.914)" fill="#f5e2d9"/>
      <path id="Path_220" data-name="Path 220" d="M1433.716,1199.055s-1.824,7.3-1.167,9.338c0,0,4.01,1.458,6.893-.365a32.052,32.052,0,0,0-5.726-8.973Z" transform="translate(-632.104 -904.141)" fill="#464157"/>
      <path id="Path_221" data-name="Path 221" d="M1450.09,1363.389c1.021-5.147.049-20.572.008-21.225l-.874.059c.01.158,1.006,15.963.007,21Z" transform="translate(-639.052 -963.261)" fill="#ad9f99"/>
      <path id="Path_222" data-name="Path 222" d="M1438.407,1374.286s8.231.983,10.953,1.661l-.357,9.225-10.778-1.15Z" transform="translate(-634.508 -976.531)" fill="#69737a"/>
      <path id="Path_223" data-name="Path 223" d="M1437.289,1212.508a185.579,185.579,0,0,1,9.125,48.77c1.021,25.973-1.724,32.684-1.724,32.684l-10.139,9.124-3.394-11.861s9.156-28.853,4.251-62.229c-.889-6.048-2.208-17.509-2.208-17.509Z" transform="translate(-631.588 -909.277)" fill="#464157"/>
      <path id="Path_224" data-name="Path 224" d="M1750.569,1424.137a11.584,11.584,0,0,0-2.406,3.3c-.488,1.262-2.123,2.934-2.9,3.888a44.279,44.279,0,0,0-4.07,6.661c-.168.508.055,4.017-.4,5.013s-1.632,2.905-.743,3.264,2.421-1.072,2.421-1.072a1.366,1.366,0,0,0,.323,1.483,2.356,2.356,0,0,0,2.312.642s.265,1.182.932,1.492a3,3,0,0,0,2.413.24,2.758,2.758,0,0,0,1.6.988,2.515,2.515,0,0,0,2.3-.752s1.643.77,2.383.075a8.452,8.452,0,0,0,1.319-2.273,29.109,29.109,0,0,0,1.264-12.742c-.9-5.344,3.278-9.35,3.278-9.35Z" transform="translate(-759.063 -997.125)" fill="#eea886"/>
      <path id="Path_225" data-name="Path 225" d="M1725.829,1473.667v-14.549a4.255,4.255,0,0,1,4.25-4.25h23.073a4.254,4.254,0,0,1,4.249,4.25v14.549a4.254,4.254,0,0,1-4.249,4.25h-23.073A4.255,4.255,0,0,1,1725.829,1473.667Zm4.25-15.947a1.4,1.4,0,0,0-1.4,1.4v14.55a1.4,1.4,0,0,0,1.4,1.4h23.073a1.4,1.4,0,0,0,1.4-1.4v-14.549a1.4,1.4,0,0,0-1.4-1.4Z" transform="translate(-753.321 -1009.82)" fill="#0e1e2b"/>
      <rect id="Rectangle_5" data-name="Rectangle 5" width="86.566" height="62.021" transform="translate(1031.577 523.875) rotate(180)" fill="#54281a"/>
      <path id="Path_226" data-name="Path 226" d="M1789.626,1200.877s4.3-.031,6.193,13.228-1.692,18.8-2.12,24.317-6.9,41.151-7.075,42.725-1.044,20.541-3.568,25.573-21.075,33.555-21.323,34.978-9.008-4.969-9.008-4.969,14.575-30.508,15.42-33.99,6.712-21.256,5.784-26.683,2.6-35.358,2.256-38.689S1781.13,1202.9,1789.626,1200.877Z" transform="translate(-764.432 -904.893)" fill="#eea886"/>
      <path id="Path_227" data-name="Path 227" d="M1788.75,1200.718s4.435.063,6.325,13.322.182,18.032-.962,23.779c-1.08,5.427-4.759,38.629-4.934,40.2s-4.578,21.591-6.867,28.632c-1.74,5.354-18.282,33.385-18.53,34.809s-12.861-6.55-12.861-6.55,16.175-31.556,17.02-35.037,3.583-15.531,3.672-21.036c.1-6.466,4.171-38.206,3.829-41.537S1776.38,1205.252,1788.75,1200.718Z" transform="translate(-763.687 -904.828)" fill="#e64646"/>
      <path id="Path_228" data-name="Path 228" d="M1865.557,1727.4s-7.722,11.467-10.833,14.233c0,0-7.16,2.507-7.607,7.376-.29,3.184-.011,8.3,8.171,8.53s13.434-2.626,14.932-7.582a14.968,14.968,0,0,1,4.326-7.171v10.371h1.844s.461-10.027.576-11.87,1.325-8.934-2.565-12.073S1865.557,1727.4,1865.557,1727.4Z" transform="translate(-803.398 -1122.294)" fill="#eddad3"/>
      <path id="Path_229" data-name="Path 229" d="M1771.455,1710.147a33.1,33.1,0,0,1-3.861,6.456c-1.851,2.416-7.606,12.332-10.142,13.024s-10.372,2.074-11.064,6.456-1.037,7.492,6.685,7.837,12.794.807,16.48-4.61a40.1,40.1,0,0,1,9.566-9.335v14.133h3s1.383-14.709,2.19-15.746,2.88-12.332-4.264-18.209S1771.455,1710.147,1771.455,1710.147Z" transform="translate(-761.676 -1114.202)" fill="#eddad3"/>
      <path id="Path_230" data-name="Path 230" d="M1866.247,1347.582s9.751,12.677,12.4,27.717-1.562,65.519-1.447,72.95,7.031,25.93,5.647,39.933-12.937,82.546-12.937,82.546l-8.844-1.814s.865-71.051,0-76.928-2.6-27.3-2.946-29.723-21.95-65.97-21.95-76.814S1842.736,1329.891,1866.247,1347.582Z" transform="translate(-798.902 -963.808)" fill="#eea886"/>
      <path id="Path_231" data-name="Path 231" d="M1788.072,1356.672s-16.022,61.14-17.921,69.611-4.656,15.457-4.656,19.053c0,8.345,3.1,21.745,3.1,21.745l10.891,96.808h8.586s5.416-56.53,6.28-67.939-6.221-29.043-4.495-33.883,27.832-60.677,27.832-60.677S1837.455,1338.924,1788.072,1356.672Z" transform="translate(-769.707 -967.943)" fill="#eea886"/>
      <path id="Path_232" data-name="Path 232" d="M1857.86,1742.415s6.728,3.456,12.836-1.109a24.951,24.951,0,0,0,8.171-11.9l-8.844-1.814Z" transform="translate(-807.865 -1122.488)" fill="#eea886"/>
      <path id="Path_233" data-name="Path 233" d="M1765.475,1730.366s6.915,1.729,9.566,0,11.662-16.961,14.647-17.873c0,0-2.892-5.869-10.212-1.6C1779.477,1710.89,1767.435,1727.831,1765.475,1730.366Z" transform="translate(-769.699 -1114.944)" fill="#eea886"/>
      <path id="Path_234" data-name="Path 234" d="M1769.029,1441.4s29.434,17.323,84.6,17.323c0,0,3.124-63.985-4.9-81.988s-61.266-6.808-61.266-6.808S1770.924,1428.161,1769.029,1441.4Z" transform="translate(-771.167 -973.308)" fill="#1d3b54"/>
      <path id="Path_235" data-name="Path 235" d="M1817.253,1192.263s-8.556,4.04-11.526,4.636-14.5,15.565-16.516,21.032,0,13.664,4.159,23.288.235,12.832,2.139,22.457,3.565,30,3.208,35.349,48.06,6.357,59.11-3.387c0,0-11.106-16.634-12.532-19.01s-.235-15.328,1.069-18.655,10.006-31.62,10.006-31.62,7.117-21.728.688-26.722c-5.584-4.337-20.805-5.884-23.538-6.834S1822.838,1191.431,1817.253,1192.263Z" transform="translate(-779.178 -901.15)" fill="#eddad3"/>
      <path id="Path_236" data-name="Path 236" d="M1829.232,1209.505l-5.2-6.087,4.514-16.026A105.817,105.817,0,0,1,1829.232,1209.505Z" transform="translate(-793.89 -899.323)" fill="#d6c5be"/>
      <path id="Path_237" data-name="Path 237" d="M1835.513,1088.055c-5.084-1.789-23.764-6.179-28.161,17.7s8.792,40.875,20.913,36.359,19.6-21.032,20.318-33.629S1841.929,1090.313,1835.513,1088.055Z" transform="translate(-786.642 -857.66)" fill="#eea886"/>
      <path id="Path_238" data-name="Path 238" d="M1807.957,1104.383s-.916-20.437,19.4-21.15,25.784,16.016,24.121,28.208a29.846,29.846,0,0,1-10.074,18.622s.73-9.864-3.212-12.426-19.746-7.67-26.637-19.552C1811.56,1098.086,1808.363,1101.834,1807.957,1104.383Z" transform="translate(-787.246 -856.284)" fill="#252e3b"/>
      <path id="Path_239" data-name="Path 239" d="M1850.5,1101.822c2.677,8.138,10.614,12.839,17.728,10.5s10.712-10.834,8.036-18.972-10.615-12.839-17.729-10.5S1847.827,1093.682,1850.5,1101.822Z" transform="translate(-804.46 -855.886)" fill="#252e3b"/>
      <path id="Path_240" data-name="Path 240" d="M1830.59,1167.513s1.707,15.695,1.35,20.8c0,0,8.889,8.908,19-10.4,0,0-4.254-7.958-1.052-18.8S1830.59,1167.513,1830.59,1167.513Z" transform="translate(-796.599 -886.273)" fill="#eea886"/>
      <path id="Path_241" data-name="Path 241" d="M1832.891,1211.2v8.139l10.23-7.644Z" transform="translate(-797.549 -909.159)" fill="#eea886"/>
      <path id="Path_242" data-name="Path 242" d="M1832.891,1211.332l4.248-5.257,14.308-14.261,4.629,4.458Z" transform="translate(-797.549 -901.149)" fill="#d6c5be"/>
      <path id="Path_243" data-name="Path 243" d="M1859.006,1194.139s-12.008,18.223-12.582,26.243,4.463,68.016,8.5,87.3,33.173-2.176,33.173-2.176-19.582-31.695-12.065-57.074,10.248-35.526,10.248-35.526-2.586-14.133-11.751-16.122C1866.49,1195.043,1859.006,1194.139,1859.006,1194.139Z" transform="translate(-803.122 -902.11)" fill="#e64646"/>
      <path id="Path_244" data-name="Path 244" d="M1788.246,1222.657s-2.166,7.664,6.271,24.6c0,0-.135,21.678-.372,28.452s-1.842,32.378-1.842,32.378l8.344,4.887a2.355,2.355,0,0,0,3.528-2.315c-2.364-19.49-10.051-93.421,6.555-113.293l-6.664,1.965S1792.228,1209.022,1788.246,1222.657Z" transform="translate(-779.003 -903.445)" fill="#e64646"/>
      <path id="Path_245" data-name="Path 245" d="M1854.629,1133.191a3.132,3.132,0,0,1,4.636-1.331c1.426,1.069,2.258,4.277,0,8.436S1849.046,1147.354,1854.629,1133.191Z" transform="translate(-805.725 -876.156)" fill="#eea886"/>
      <path id="Path_246" data-name="Path 246" d="M1819.423,1203.418l-6.55,1.81,11.064-17.836Z" transform="translate(-789.28 -899.323)" fill="#fae6de"/>
      <path id="Path_247" data-name="Path 247" d="M1840.129,1206.075l5.983,7.843,12.286-20.477-3.96-1.626Z" transform="translate(-800.54 -901.149)" fill="#fae6de"/>
      <path id="Path_248" data-name="Path 248" d="M1831.122,1176.839l.33,3.117s7.07,1.364,16.316-9.913C1847.767,1170.043,1841.174,1178.025,1831.122,1176.839Z" transform="translate(-796.819 -892.155)" fill="#a77860"/>
      <path id="Path_249" data-name="Path 249" d="M1755.734,1344.468s-4.155,2.677-6.546,1.18c-2.033-1.272-5.58-1.449-6.671-1.5-1.46-.075-5.857-1.977-5.97-.136s7.1,3.483,8.54,4.129-4.911,3.75-5.627,5.231,5.02,11.714,9.134,9.08,6.771-8.164,7.587-8.483a29.949,29.949,0,0,0,3.069-1.8Z" transform="translate(-757.748 -963.692)" fill="#eea886"/>
      <path id="Path_250" data-name="Path 250" d="M1843.211,1202.894a12.586,12.586,0,0,0-10.86,4.244c-4.991,5.347-7.486,14.139-8.793,16.992s-17.824,29.227-18.774,29.824-17.733,14.138-25.338,21.386-22.427,15.329-22.427,15.329l5.584,7.843s45.034-24,50.736-32.795,28.473-33.153,28.473-33.153S1855.508,1211.751,1843.211,1202.894Z" transform="translate(-766.205 -905.688)" fill="#eea886"/>
      <path id="Path_251" data-name="Path 251" d="M1734.133,1359.084s-12.061,8.9-12.368,10.166.214,1.891,1.376,1.106,11.9-8.262,11.9-8.262-12.5,12.932-12.983,13.914c-.28.575.657,1.845,1.318,1.483s13.788-12.473,13.788-12.473-11.653,12.1-11.809,13.037a1.156,1.156,0,0,0,1.942.935c.926-.837,12.377-11.453,12.377-11.453s-7.928,9.337-7.591,10.212c.207.534.966,1.669,2.935-.8s7.231-7.82,7.231-7.82Z" transform="translate(-751.606 -970.251)" fill="#eea886"/>
      <path id="Path_252" data-name="Path 252" d="M1795.693,1275.136s-.4,27.063,1.253,40.115l.733-35.865Z" transform="translate(-782.165 -935.571)" fill="#e64646"/>
      <path id="Path_253" data-name="Path 253" d="M1842.1,1199.967s-2.993.653-7.985,6-7.486,14.139-8.792,16.992-17.823,29.227-18.775,29.824-14.7,10.039-22.308,17.287-21.759,15.907-21.759,15.907l7.263,10.783s39.715-22,46.012-30.372c6.728-8.948,30.716-35.217,30.716-35.217S1861.736,1207.142,1842.1,1199.967Z" transform="translate(-768.463 -904.518)" fill="#e64646"/>
      <path id="Path_254" data-name="Path 254" d="M1744.192,1453.437s1.548-6.023,3.484-6.922,1.5,1.3,1.5,1.3.394-2.186,2.2-2.063,1.152,2.675,1.152,2.675a1.8,1.8,0,0,1,2.462-.809c1.71.769.681,2.767.681,2.767s2.312-1.649,2.868.6c.939,3.793-1.852,7.38-1.852,7.38a2.111,2.111,0,0,1-2.49,0,2.561,2.561,0,0,1-3.969-.235s-3.115.808-3.413-1.746C1746.811,1456.381,1743.269,1456.779,1744.192,1453.437Z" transform="translate(-760.843 -1006.054)" fill="#db9c7c"/>
      <path id="Path_255" data-name="Path 255" d="M1852.118,1308.5l13.6-21.936s-11.592,13.687-12.8,15.156-1.31,1.577-1.31,1.577S1851.953,1307.748,1852.118,1308.5Z" transform="translate(-805.279 -940.29)" fill="#9c2f2f"/>
      <path id="Path_256" data-name="Path 256" d="M542.361,1689.694s-2.4-3.922-5.689-5.452-10.036,3.81-10.626,6.779l-7.815,11.407,1.48,1.014,4.172-6.089c-2.841,6.839-6.9,15.024-4.05,19.137,3.828,5.522,12.508,11.107,14.8,10.14s1.833-17.025,1.833-17.025C533.993,1695.427,542.361,1689.694,542.361,1689.694Z" transform="translate(-254.446 -1104.466)" fill="#1d3b54"/>
      <path id="Path_257" data-name="Path 257" d="M547.853,1689.882a88.591,88.591,0,0,0-4.311,9.733c-1.467,4.253-1.738,16.027-2.66,16.844s-8.2-2.853-9.167-7.255,1.978-13.2,4.786-17.831a28.741,28.741,0,0,1,5.663-6.943S547.122,1685.394,547.853,1689.882Z" transform="translate(-259.939 -1104.655)" fill="#de9673"/>
      <path id="Path_258" data-name="Path 258" d="M578.475,1517.885s-4.455,23.642-4.455,29.3-1.542,14.907-5.139,21.757-19.385,53.67-20.755,59.123-2.544,10.6-2.544,10.6-7.881-3.6-7.881-8.738,6.853-47.626,8.052-56.021,11.136-51.4,11.136-51.4Z" transform="translate(-262.49 -1035.854)" fill="#de9673"/>
      <path id="Path_259" data-name="Path 259" d="M544.233,1514.586s1.542,19.7,1.371,24.841-2.57,16.789-2.57,19.873,0,66.977,2.554,74.687-7.179,2.406-7.179,2.406-16.961-42.028-16.961-59.56,2.054-26.27.856-37.406-6.529-25.795-6.529-25.795Z" transform="translate(-253.431 -1034.096)" fill="#eea886"/>
      <path id="Path_260" data-name="Path 260" d="M512.011,1353.68s-9.117,11.17-11.516,26.074,2.838,43.011,4.7,51.144c1.635,7.133,4.76,29.971,4.93,32.369,0,0,30.654,3.471,53.953-3.895,0,0,2.131-31.9,3.5-45.43s-5.316-59.234-5.316-59.234Z" transform="translate(-246.865 -968.018)" fill="#eb4747"/>
      <path id="Path_261" data-name="Path 261" d="M565.833,1737.475c-10.98-9.589-8.04-19.435-8.04-19.435s-4.388-1.559-7.953-.669-5.475,9.39-4.049,12.107l1.112,13.962,1.812-.144-.593-7.453c2.118,7.2,4.133,16.228,9,17.651,6.533,1.911,16.926.78,18.117-1.441S565.833,1737.475,565.833,1737.475Z" transform="translate(-265.635 -1118.15)" fill="#1d3b54"/>
      <path id="Path_262" data-name="Path 262" d="M582.219,1175.629s-2.716,16.171-.37,21.6-12.468-6.349-12.468-6.349S575.528,1173.066,582.219,1175.629Z" transform="translate(-275.577 -894.359)" fill="#754836"/>
      <path id="Path_263" data-name="Path 263" d="M562.517,1098.914s-23.78-5.444-26.742,19.967,7.736,28.6.493,45.82,17.685-5.61,17.685-5.61Z" transform="translate(-261.352 -862.569)" fill="#754836"/>
      <path id="Path_264" data-name="Path 264" d="M563.852,1098.627c6.1-.123,19.54,3.324,21.168,19.54a50.292,50.292,0,0,1-1.764,7.734c-1.153,3.392,1.629,13.569.815,14.044a22.238,22.238,0,0,1-4.139,1.018s-3.868,10.923-7.735,10.719-18.432-3.639-24.943-17.548S539.2,1099.125,563.852,1098.627Z" transform="translate(-264.738 -862.651)" fill="#eea886"/>
      <path id="Path_265" data-name="Path 265" d="M465.094,1433.184s.569-9.779,3.159-11.3,1.092,1.507,1.092,1.507-1.455,7.1-1.775,9.972A14.709,14.709,0,0,1,465.094,1433.184Z" transform="translate(-232.495 -996.02)" fill="#1d3b54"/>
      <path id="Path_266" data-name="Path 266" d="M477.339,1399.272a71.853,71.853,0,0,0,2.051,8.611c1.329,4.225,2.552,5.575,2.018,8-.4,1.827-2.47,3.2-2.993,2.614s-.775-7.694-3.72-7.661.88,8.8-.872,8.158-8.5-4.34-8.077-7.923,3.124-6.17,2.95-11.521c-.157-4.855,1.355-6.883,1.355-6.883Z" transform="translate(-232.756 -984.122)" fill="#eea886"/>
      <path id="Path_267" data-name="Path 267" d="M480.1,1423.084s3.921,1,3.688,14.267l-4.44-.742s.08-7.331-1.245-11.327C478.105,1425.283,478.331,1422.688,480.1,1423.084Z" transform="translate(-237.87 -996.673)" fill="#1d3b54"/>
      <path id="Path_268" data-name="Path 268" d="M484.907,1445.617l-34.58-9.81.1,42.588,34.413,20.624Z" transform="translate(-226.394 -1001.946)" fill="#eddad3"/>
      <path id="Path_269" data-name="Path 269" d="M482.528,1499.019l-4.332.8L444.725,1479l.415-43,2.873-.2Z" transform="translate(-224.08 -1001.946)" fill="#eddad3"/>
      <path id="Path_270" data-name="Path 270" d="M550.824,1197.984s9.217,3.785,10.863,4.938,4.938,14.485,5.761,15.637,8.775,11.038,7.675,19.052c-.865,6.3-4.423,9.629-6.728,12.1s-4.438,15.76-5.161,17.736,1.574,27.9,1.574,27.9-27.046,10.527-51.241-7.413c0,0,4.831-17.36,4.831-20.488s-3.128-25.184-11.522-38.187,1.482-26.83,7.9-28.475,18.765-6.255,18.765-6.255Z" transform="translate(-248.42 -902.27)" fill="#eb4747"/>
      <path id="Path_271" data-name="Path 271" d="M506.332,1201.82s-13.537-.834-20.326,7.067-6.419,17.283-8.147,21.357-5.679,21.6-6.543,24.442-1.707,18.8-2.942,31.637-.985,36.813-.985,36.813l12.951-2.348s.522-22.852.851-36.1,11.11-36.663,15.184-46.909S516.668,1208.249,506.332,1201.82Z" transform="translate(-233.434 -905.272)" fill="#eb4747"/>
      <path id="Path_272" data-name="Path 272" d="M596.277,1207.554a11.176,11.176,0,0,1,8.792,6.3c2.839,5.928,3.926,10.854,4.666,12.335s11.011,21,11.629,25.316-.37,12.221-5.8,14.32-24.936,2.348-24.936,2.348,4.938-10.036.37-15.219c0,0,14.155-2.557,17.505-2.9C612.035,1249.7,591.791,1212,596.277,1207.554Z" transform="translate(-284.353 -907.652)" fill="#eb4747"/>
      <path id="Path_273" data-name="Path 273" d="M545.006,1226.92l26.374,61.6,32.883-15.49-24.319-59.153Z" transform="translate(-265.507 -910.263)" fill="#1d3b54"/>
      <path id="Path_274" data-name="Path 274" d="M567.185,1287.665s-3.571.95-4.7,1.115.268,2.26,1.655,2.322S567.185,1287.665,567.185,1287.665Z" transform="translate(-272.556 -940.747)" fill="#eea886"/>
      <path id="Path_275" data-name="Path 275" d="M569.581,1304.06a7.515,7.515,0,0,0,2.365-.469s1.232-.807,2.143-1.328a7.339,7.339,0,0,1,.72-.372,13.806,13.806,0,0,0,3.969-1.937c1.55-1.2,6.594-6.01,6.594-6.01l-3.335-5.024-2.576-4s-10.839.3-12.413,1.252a4.712,4.712,0,0,0-.433.3,17.624,17.624,0,0,0-2.4,2.729c-.22.209-2.266,2.44-2.142,3.336a2.955,2.955,0,0,0,1.569,2.406,7.073,7.073,0,0,0,1.7,3.493,4.393,4.393,0,0,0,2.286,3.132S568.232,1303.806,569.581,1304.06Z" transform="translate(-272.558 -939.612)" fill="#eea886"/>
      <path id="Path_276" data-name="Path 276" d="M591.256,1267.368s16.058-2.872,20.493-3.339a55.417,55.417,0,0,0-.508-10.409c-.81-4.776-4.731-11.181-4.731-11.181l8.211,7.521s6.749,12.937,6.9,15.963.953,7.694-3.042,12.427-22.853,2.566-22.853,2.566S597.305,1275.11,591.256,1267.368Z" transform="translate(-284.614 -922.063)" fill="#eb4747"/>
      <path id="Path_277" data-name="Path 277" d="M570.025,1175.587s-.52,1.531-1.125,3.809c-.31,1.164-.642,2.524-.939,3.967-.815,4-1.36,8.691-.406,11.851,0,0-8.639,2.723-15.058-9.56,0,0,3.27-12.946-.28-20.952S570.025,1175.587,570.025,1175.587Z" transform="translate(-268.322 -889.133)" fill="#eea886"/>
      <path id="Path_278" data-name="Path 278" d="M584.111,1116.294s-10.086,6.468-19.947,7.553-15.345,16-15.345,16-15.5-24.141-3.019-38.976S586.779,1097.523,584.111,1116.294Z" transform="translate(-263.828 -860.779)" fill="#754836"/>
      <path id="Path_279" data-name="Path 279" d="M569.058,1141.519c0-1.9-2.035-4.816-5.223-2.306s.746,11.67,3.324,10.857S569.058,1143.486,569.058,1141.519Z" transform="translate(-272.793 -879.017)" fill="#eea886"/>
      <path id="Path_280" data-name="Path 280" d="M569.617,1197.5s4.065,12-5.44,11.934-13.643-7.537-16.358-14.169c0,0,4.383-2.127,6.42-2.435S569.617,1197.5,569.617,1197.5Z" transform="translate(-266.67 -901.565)" fill="#eea886"/>
      <path id="Path_281" data-name="Path 281" d="M484.666,1445.381l-4.458.577,0-2.08Z" transform="translate(-238.739 -1005.28)" fill="#1d3b54"/>
      <path id="Path_282" data-name="Path 282" d="M467.639,1440.688l-2.465.293s-.009-.741.012-.988S467.553,1440.534,467.639,1440.688Z" transform="translate(-232.527 -1003.656)" fill="#1d3b54"/>
      <path id="Path_283" data-name="Path 283" d="M560.63,1717.632a89.733,89.733,0,0,0,2.8,10.412c1.556,4.284,8.841,13.73,8.635,14.962s-8.272,2.975-11.841.125-6.853-11.66-7.589-17.093a40.329,40.329,0,0,1-.346-8.941S557.2,1714.566,560.63,1717.632Z" transform="translate(-268.474 -1117.745)" fill="#eea886"/>
      <path id="Path_284" data-name="Path 284" d="M573.317,1181.427c-.31,1.163-.768,2.566-1.124,3.952a41.164,41.164,0,0,1-11.542-11.526C565.077,1178.089,573.317,1181.427,573.317,1181.427Z" transform="translate(-271.971 -893.729)" fill="#a77860"/>
      <path id="Path_285" data-name="Path 285" d="M834.793,1342.511s-6.737,3.345-13.12,3.975c0,0-6.031-8.843-9.56-15.462-8.418-15.791-10.9-23.182-10.185-29.246,1.291-10.9,22.724-54.5,22.724-54.5l23.791,9.18-18.214,32.37c-1.7,3.316-3.893,8.708-6.162,13.094-2.97,5.747.606,18.9,2.722,24.391C826.791,1326.318,830.673,1336.956,834.793,1342.511Z" transform="translate(-371.597 -924.064)" fill="#eea886"/>
      <path id="Path_286" data-name="Path 286" d="M710.708,1708.692s-.7,3.944,2.028,9.214,14.966,18.7,14.121,24.21-14.978,4.864-23.855-4.845-22.059-19.789-21.572-22.12,13.8-14.443,18.425-16.053S710.708,1708.692,710.708,1708.692Z" transform="translate(-321.86 -1110.65)" fill="#353a3d"/>
      <path id="Path_287" data-name="Path 287" d="M728.21,1699.535l-5,5.385-11.242-9.584,5.168-5.993Z" transform="translate(-334.482 -1106.685)" fill="#eea886"/>
      <path id="Path_288" data-name="Path 288" d="M713.339,1634.29c5.484-6.221,49.742-51.505,49.742-51.505,22.573-26.019,31.406-26.707,31.406-26.707a131.359,131.359,0,0,1,13.447,1.178c1.112.155,4.736.117,5.9.3,14.373,2.33,14.773.69,9.52,12.466-8.641,19.36-95.291,75.223-95.291,75.223Z" transform="translate(-335.048 -1051.632)" fill="#1d3b54"/>
      <path id="Path_289" data-name="Path 289" d="M1046.888,1729.421a60.24,60.24,0,0,0,13.354,3.948c6.252.852,21.322-1.629,25.6,2.48s-4.944,16-18.822,17.774-31.654,4.71-33.382,2.859-3.173-18.491-1.738-23.5S1046.888,1729.421,1046.888,1729.421Z" transform="translate(-466.408 -1123.161)" fill="#353a3d"/>
      <path id="Path_290" data-name="Path 290" d="M1042.728,1717.024l2.98,7.356-14.989,3.561-2.262-7.875Z" transform="translate(-465.227 -1118.121)" fill="#eea886"/>
      <path id="Path_291" data-name="Path 291" d="M989.154,1555.128s-6.1-23.264,8.226,31.544c0,0,15.1,58.483,16.76,61.81.394.789-18.929,4.325-19.284,4.183-3.362-1.344-33.445-76.272-40.921-90.109C947.351,1550.372,989.154,1555.128,989.154,1555.128Z" transform="translate(-434.151 -1049.213)" fill="#1d3b54"/>
      <path id="Path_292" data-name="Path 292" d="M962.158,1506.747l-30.072,17.3s-11.83-14.531-19.669-20.464c-.806-.6-1.611-1.214-2.427-1.849-1.157-.873-2.315-1.77-3.471-2.677-.84-.657-1.69-1.327-2.518-2-5.729-4.571-11.083-9.188-14.032-12.6-8.519-9.834,10.13-72.019,33.678-44.285C923.647,1440.173,955.215,1469.813,962.158,1506.747Z" transform="translate(-407.149 -1000.831)" fill="#1d3b54"/>
      <path id="Path_293" data-name="Path 293" d="M899.089,1432.583s-14.819,68.089-29.425,91.251c0,0-24.8-8.363-36.2-12.829,0,0-1.106-49.208-.006-62.066C834.485,1436.945,899.089,1432.583,899.089,1432.583Z" transform="translate(-384.47 -1000.614)" fill="#1d3b54"/>
      <path id="Path_294" data-name="Path 294" d="M828.729,1359.81s6.248-61.184,1.073-89.653c-3.442-18.925,1.538-49.637,12.884-66.207a40.528,40.528,0,0,1,4.275-5.325s22.906,6.065,25.2,7.665a46.928,46.928,0,0,1,5.94,6.261h0c6.517,7.994,16.143,22.465,17.078,36.513.68,10.219,1.241,19.6,1.878,29.286.191,2.945.394,5.919.606,8.954.513,7.286,1.1,14.915,1.832,23.323.406,4.679,3.559,19.521,5.634,33.207Z" transform="translate(-382.717 -903.963)" fill="#5b94e2"/>
      <path id="Path_295" data-name="Path 295" d="M921.344,1522.948c-1.157-.873-2.315-1.77-3.471-2.677-.84-.657-1.69-1.327-2.518-2,1.2-3.834,7.737-21.325,10.3-33.814C925.655,1484.461,927.549,1503.915,921.344,1522.948Z" transform="translate(-418.503 -1022.046)" fill="#0f1e2b"/>
      <path id="Path_296" data-name="Path 296" d="M935.152,1328.767s-13.331,20.26-15.7-29.776l15.089,20.822C934.734,1322.758,934.938,1325.732,935.152,1328.767Z" transform="translate(-420.198 -945.426)" fill="#436da6"/>
      <path id="Path_297" data-name="Path 297" d="M859.368,1182.678s2.387-13.233-.394-20.927,22.792,12.97,22.792,12.97,0,1.069.043,2.67c.035,1.25.1,2.825.214,4.476a33.913,33.913,0,0,0,1.429,8.551C885.165,1194.746,859.368,1182.678,859.368,1182.678Z" transform="translate(-395.124 -888.021)" fill="#eea886"/>
      <path id="Path_298" data-name="Path 298" d="M895.049,1110.8s5.39,10.153,2.675,11.709c-2.244,1.285,2.544,11.246,3.169,12.872s-4.067,2.774-5.068,3.811-4.036,13.865-7.895,14.227-21.2-5.8-25.9-10.749-8.435-27.2-5.214-36.556S885.536,1093.065,895.049,1110.8Z" transform="translate(-393.822 -862.516)" fill="#eea886"/>
      <path id="Path_299" data-name="Path 299" d="M892.671,1108.146s5.643-10.889-4.421-19.062-28.816,5.928-30.924,6.456-14.6,4.514-8.33,23.093c5.688,16.855,6.418,18.757,6.418,18.757s3.455-11.2,5.653-12.777c3.434-2.458,10.921-1.812,10.921-1.812s-3.507-9.5,2.081-10.805S887.041,1106.013,892.671,1108.146Z" transform="translate(-390.37 -857.66)" fill="#3c4145"/>
      <path id="Path_300" data-name="Path 300" d="M873.406,1135.74c-.484-1.3-2.037-6.9-6.853-3.652s2.9,13.831,3.73,13.971S877.474,1146.706,873.406,1135.74Z" transform="translate(-397.693 -876.063)" fill="#eea886"/>
      <path id="Path_301" data-name="Path 301" d="M888.038,1189.676c-7.923-2.13-14.721-10.732-14.721-10.732,2.166,2.113,14.507,6.256,14.507,6.256C887.856,1186.45,887.924,1188.025,888.038,1189.676Z" transform="translate(-401.137 -895.833)" fill="#a77860"/>
      <path id="Path_302" data-name="Path 302" d="M1010.073,1313.831l-12.905,66.446-42.647-8.283,11.239-66.769Z" transform="translate(-434.683 -948)" fill="#616161"/>
      <path id="Path_303" data-name="Path 303" d="M1008.995,1320.021l-11.462,59.013-37.876-7.357,9.982-59.3Z" transform="translate(-436.805 -950.956)" fill="#e0cec7"/>
      <path id="Path_304" data-name="Path 304" d="M1012.065,1319.012l.8-4.142-15.312-2.974-1.4,4.026Z" transform="translate(-451.882 -950.757)" fill="#616161"/>
      <path id="Path_305" data-name="Path 305" d="M1023.6,1384.492a9.262,9.262,0,0,1-2.864.729s-1.791-.241-3.073-.335a8.848,8.848,0,0,0-.993-.03,16.912,16.912,0,0,1-5.414-.043c-2.352-.512-11.921-5.328-11.921-5.328l1.135-5.912.273-5.687s13.952-4.741,16.2-4.519a5.815,5.815,0,0,1,.636.1c1.883.374,3.126,1.443,4.092,1.751.352.117,3.8,1.5,4.133,2.558a3.621,3.621,0,0,1-.463,3.491s.792,2.91-.037,4.764a5.385,5.385,0,0,1-.872,4.673S1024.955,1383.495,1023.6,1384.492Z" transform="translate(-453.196 -972.016)" fill="#eea886"/>
      <path id="Path_306" data-name="Path 306" d="M949.113,1325.047s-1.326,7.4-4.621,12.906c0,0-10.7-.423-18.115-1.531-17.7-2.644-25.115-5.051-29.557-9.24-7.985-7.527-30.239-50.714-30.239-50.714l21.545-13.642,15.152,33.911c1.652,3.342,4.676,8.315,6.848,12.748,2.848,5.81,15.542,10.772,21.214,12.342C931.339,1321.829,942.2,1325.047,949.113,1325.047Z" transform="translate(-398.354 -930.486)" fill="#eea886"/>
      <path id="Path_307" data-name="Path 307" d="M895.536,1272.384l-24.491,12.735s-4.856-9.4-6.28-12.451c-4.079-8.761-10.388-22-2.454-27.594,17.121-12.072,24.48,7.961,28.686,18.944A58.676,58.676,0,0,0,895.536,1272.384Z" transform="translate(-395.019 -921.605)" fill="#5b94e2"/>
    </g>
  </g>
</svg>
