<svg xmlns="http://www.w3.org/2000/svg" width="50.196" height="50.196" viewBox="0 0 50.196 50.196">
  <g id="linkedin_1_" data-name="linkedin (1)" transform="translate(0 0.001)">
    <circle id="Ellipse_1" data-name="Ellipse 1" cx="25.098" cy="25.098" r="25.098" transform="translate(0 -0.001)" fill="#007ab9"/>
    <g id="Group_29" data-name="Group 29" transform="translate(12.11 10.723)">
      <path id="Path_311" data-name="Path 311" d="M55.052,40.362V50.71h-6V41.056c0-2.424-.866-4.079-3.038-4.079a3.281,3.281,0,0,0-3.077,2.194,4.106,4.106,0,0,0-.2,1.462V50.709h-6s.081-16.351,0-18.043h6v2.557c-.012.02-.029.04-.04.059h.04v-.059a5.957,5.957,0,0,1,5.407-2.981c3.947,0,6.906,2.579,6.906,8.12ZM30.463,23.969a3.126,3.126,0,1,0-.079,6.235h.039a3.127,3.127,0,1,0,.04-6.235ZM27.425,50.71h6V32.666h-6Z" transform="translate(-27.068 -23.969)" fill="#f1f2f2"/>
    </g>
  </g>
</svg>
